<svg width="305" height="428" viewBox="0 0 305 428" fill="none" xmlns="http://www.w3.org/2000/svg">
<g clip-path="url(#clip0_63_313)">
<path d="M115.819 426.713C103.179 417.686 90.5484 408.668 77.9092 399.641C86.9209 388.879 95.1518 377.486 102.529 365.541C122.163 377.374 141.805 389.199 161.439 401.032C157.502 407.396 153.362 413.633 149.043 419.741C138.283 422.867 127.189 425.218 115.811 426.721L115.819 426.713Z" fill="#E0F2FF"/>
<path d="M115.485 428L107.88 422.571C97.6406 415.256 87.4089 407.948 77.169 400.632L76.0873 399.857L76.9331 398.841C85.8879 388.152 94.1352 376.735 101.447 364.886L102.106 363.822L163.163 400.6L162.512 401.656C158.584 408.012 154.395 414.328 150.068 420.429L149.816 420.78L149.393 420.9C138.502 424.066 127.254 426.433 115.973 427.92L115.477 427.984L115.485 428ZM79.731 399.409C89.6049 406.461 99.4869 413.521 109.369 420.573L116.152 425.418C126.994 423.962 137.795 421.692 148.271 418.67C152.24 413.057 156.087 407.268 159.722 401.432L102.952 367.236C95.9733 378.43 88.1653 389.239 79.731 399.401V399.409Z" fill="white"/>
<path d="M235.794 57.9253C219.681 64.4814 203.577 71.0455 187.473 77.6016C189.458 82.3587 191.337 87.1719 193.118 92.025C193.411 92.8325 193.712 93.64 194.004 94.4475C196.949 102.627 199.576 110.91 201.886 119.289C202.122 120.16 202.357 121.024 202.585 121.895C203.455 125.141 204.285 128.395 205.066 131.649C230.279 125.701 255.492 119.752 280.706 113.796C273.736 100.956 265.472 88.8908 256.078 77.7615C252.198 78.6729 248.319 79.5924 244.439 80.5038C243.748 78.513 243.032 76.5222 242.308 74.5474C240.934 70.8056 239.51 67.0799 238.03 63.3781C237.298 61.5552 236.558 59.7323 235.802 57.9174L235.794 57.9253Z" fill="#E0F2FF"/>
<path d="M204.13 133.144L203.838 131.937C203.065 128.691 202.235 125.421 201.365 122.215L200.666 119.608C198.38 111.309 195.737 102.986 192.817 94.8632L191.93 92.4487C190.174 87.6436 188.279 82.8065 186.31 78.0733L185.839 76.938L236.485 56.3183L236.965 57.4616C237.705 59.2366 238.461 61.0755 239.201 62.9383C240.682 66.6481 242.129 70.4139 243.488 74.1396C244.081 75.7547 244.667 77.4017 245.253 79.0567L256.542 76.3943L257.038 76.9859C266.513 88.2192 274.85 100.412 281.812 113.228L282.576 114.635L280.998 115.011C255.785 120.96 230.572 126.916 205.359 132.865L204.13 133.152V133.144ZM189.1 78.2732C190.914 82.6785 192.662 87.1559 194.289 91.6092L195.176 94.0317C198.12 102.219 200.779 110.606 203.089 118.969L203.797 121.583C204.561 124.414 205.293 127.3 205.993 130.17C230.271 124.446 254.541 118.713 278.819 112.98C272.223 101.052 264.415 89.6823 255.598 79.1526L243.61 81.975L243.235 80.9116C242.536 78.9128 241.82 76.914 241.113 74.9711C239.754 71.2694 238.323 67.5276 236.851 63.8418C236.273 62.3947 235.688 60.9555 235.102 59.5484L189.1 78.2812V78.2732Z" fill="white"/>
<path d="M108.621 330.442C105.384 329.123 72.3705 315.683 59.0969 310.278C64.2697 298.286 68.4747 285.885 71.6629 273.197C89.0357 277.298 106.409 281.4 123.781 285.493C121.219 295.719 118.104 305.849 114.436 315.835C112.622 320.76 110.687 325.629 108.621 330.434V330.442Z" fill="#E0F2FF"/>
<path d="M109.296 332.049L108.141 331.578C104.904 330.258 71.8906 316.819 58.617 311.414L57.4458 310.934L57.9419 309.791C63.0822 297.878 67.2871 285.461 70.4429 272.893L70.7438 271.702L77.9011 273.389C93.2975 277.018 108.686 280.656 124.082 284.286L125.31 284.574L125.009 285.781C122.439 296.047 119.284 306.297 115.624 316.251C113.818 321.168 111.85 326.101 109.784 330.914L109.296 332.041V332.049ZM60.7479 309.607C73.6474 314.86 101.382 326.149 107.946 328.827C109.816 324.414 111.606 319.913 113.257 315.419C116.746 305.937 119.772 296.183 122.26 286.405C107.279 282.871 92.2971 279.329 77.3155 275.795L72.5819 274.676C69.5319 286.557 65.5547 298.302 60.7479 309.607Z" fill="white"/>
<path d="M205.049 296.343C188.092 292.345 171.142 288.34 154.192 284.342C156.9 272.965 158.958 261.444 160.332 249.819C160.877 245.237 161.317 240.648 161.65 236.051C179.031 237.394 196.412 238.737 213.793 240.088C212.914 252.001 211.426 263.874 209.344 275.675C208.116 282.599 206.684 289.491 205.049 296.351V296.343Z" fill="#E0F2FF"/>
<path d="M205.985 297.838L152.679 285.261L152.964 284.062C155.656 272.773 157.713 261.204 159.08 249.675C159.617 245.133 160.064 240.52 160.389 235.963L160.479 234.724L215.135 238.953L215.045 240.176C214.167 252.089 212.662 264.106 210.58 275.883C209.36 282.799 207.904 289.779 206.269 296.631L205.977 297.838H205.985ZM155.696 283.422L204.114 294.848C205.627 288.435 206.969 281.911 208.108 275.451C210.108 264.154 211.564 252.641 212.451 241.216L162.813 237.378C162.488 241.568 162.081 245.789 161.585 249.963C160.251 261.172 158.275 272.421 155.696 283.422Z" fill="white"/>
<path d="M213.793 240.08C196.412 238.737 179.031 237.394 161.65 236.043C162.724 221.364 162.724 206.628 161.65 191.941C179.031 190.598 196.412 189.255 213.801 187.904C214.443 196.586 214.761 205.277 214.761 213.976C214.761 222.683 214.443 231.382 213.793 240.072V240.08Z" fill="#E0F2FF"/>
<path d="M214.956 241.416L160.308 237.186L160.397 235.963C161.463 221.388 161.463 206.612 160.397 192.045L160.308 190.822L214.964 186.592L215.053 187.832C215.696 196.498 216.021 205.301 216.021 213.992C216.021 222.683 215.696 231.502 215.053 240.176L214.964 241.416H214.956ZM162.992 234.916L212.63 238.753C213.207 230.542 213.5 222.211 213.5 213.984C213.5 205.757 213.207 197.45 212.63 189.247L162.984 193.085C163.935 206.972 163.935 221.028 162.984 234.908L162.992 234.916Z" fill="white"/>
<path d="M154.192 284.342C153.11 288.883 151.923 293.409 150.629 297.894C144.269 299.565 137.917 301.244 131.557 302.915C130.467 306.273 129.312 309.615 128.092 312.941C126.677 316.795 125.188 320.616 123.619 324.398C144.895 333.065 166.172 341.724 187.457 350.39C189.442 345.625 191.329 340.812 193.11 335.951C197.876 322.927 201.861 309.703 205.058 296.343C188.1 292.345 171.15 288.34 154.2 284.342H154.192Z" fill="#E0F2FF"/>
<path d="M188.14 352.005L121.984 325.07L122.455 323.934C124.017 320.184 125.514 316.347 126.913 312.525C128.116 309.239 129.279 305.881 130.361 302.547L130.573 301.907L134.631 300.836C139.625 299.517 144.619 298.206 149.621 296.886C150.825 292.657 151.955 288.347 152.972 284.062L153.256 282.855L206.562 295.431L206.278 296.631C203.073 310.039 199.039 323.407 194.289 336.375C192.516 341.22 190.605 346.097 188.62 350.862L188.14 352.013V352.005ZM125.253 323.726L186.766 348.775C188.563 344.41 190.296 339.965 191.922 335.535C196.501 323.047 200.405 310.174 203.537 297.262L155.119 285.837C154.11 289.987 153.012 294.152 151.833 298.238L151.638 298.917L150.947 299.101C145.717 300.476 140.495 301.851 135.265 303.227L132.533 303.946C131.5 307.104 130.402 310.27 129.263 313.365C127.994 316.826 126.644 320.312 125.237 323.726H125.253Z" fill="white"/>
<path d="M205.058 131.657C188.1 135.663 171.15 139.66 154.192 143.658C153.11 139.117 151.923 134.592 150.629 130.098C144.269 128.427 137.917 126.748 131.565 125.077C130.475 121.719 129.32 118.369 128.1 115.043C126.693 111.19 125.196 107.376 123.627 103.602C144.904 94.9352 166.188 86.2764 187.465 77.6096C189.45 82.3667 191.329 87.1719 193.102 92.025C197.876 105.057 201.861 118.289 205.058 131.657Z" fill="#E0F2FF"/>
<path d="M153.248 145.153L152.964 143.946C151.947 139.66 150.816 135.351 149.613 131.122L130.573 126.109L130.361 125.469C129.271 122.127 128.108 118.761 126.904 115.475C125.514 111.669 124.017 107.839 122.455 104.082L121.984 102.946L188.148 76.0105L188.628 77.1618C190.613 81.919 192.516 86.7881 194.289 91.6252C199.039 104.601 203.081 117.985 206.286 131.393L206.57 132.593L195.005 135.319C181.495 138.509 167.994 141.691 154.493 144.881L153.265 145.169L153.248 145.153ZM132.549 124.062L151.646 129.091L151.841 129.77C153.012 133.856 154.119 138.021 155.127 142.171C168.222 139.077 181.316 135.991 194.419 132.897L203.553 130.738C200.422 117.818 196.509 104.945 191.93 92.4407C190.312 88.0193 188.588 83.582 186.79 79.2246L125.27 104.274C126.677 107.696 128.027 111.173 129.288 114.627C130.426 117.73 131.524 120.904 132.557 124.062H132.549Z" fill="white"/>
<path d="M115.819 1.28723C103.188 10.3138 90.5484 19.3324 77.9174 28.359C86.9291 39.1206 95.16 50.5138 102.537 62.4586C122.179 50.6257 141.813 38.8008 161.455 26.9679C157.518 20.6037 153.387 14.3754 149.068 8.27505C138.307 5.14093 127.197 2.79033 115.819 1.29523V1.28723Z" fill="#E0F2FF"/>
<path d="M102.122 64.1616L101.463 63.0983C94.1515 51.2573 85.9043 39.8322 76.9495 29.1426L76.1036 28.1272L115.485 0L115.981 0.0639617C127.27 1.55107 138.527 3.91766 149.418 7.08376L149.84 7.20369L150.093 7.55548C154.411 13.6558 158.6 19.9641 162.52 26.3123L163.171 27.3676L102.106 64.1536L102.122 64.1616ZM79.7311 28.5909C88.1735 38.7608 95.9734 49.5704 102.952 60.7557L159.722 26.5521C156.087 20.7236 152.248 14.9351 148.279 9.33042C137.803 6.30023 126.994 4.02959 116.144 2.57446L79.7311 28.5829V28.5909Z" fill="white"/>
<path d="M213.801 187.92C196.42 189.263 179.039 190.606 161.65 191.957C161.317 187.36 160.877 182.771 160.332 178.189C158.95 166.564 156.9 155.043 154.192 143.666C171.15 139.668 188.1 135.663 205.058 131.665C206.692 138.517 208.124 145.401 209.352 152.317C211.442 164.126 212.923 176.007 213.809 187.928L213.801 187.92Z" fill="#E0F2FF"/>
<path d="M160.487 193.284L160.397 192.045C160.064 187.504 159.625 182.891 159.088 178.333C157.722 166.812 155.656 155.243 152.972 143.954L152.687 142.755L153.899 142.467C167.4 139.277 180.91 136.095 194.411 132.904L205.993 130.17L206.286 131.377C207.92 138.213 209.368 145.185 210.588 152.101C212.67 163.886 214.175 175.903 215.053 187.832L215.143 189.055L160.487 193.284ZM155.696 144.578C158.275 155.579 160.251 166.828 161.585 178.038C162.081 182.219 162.496 186.448 162.813 190.622L212.451 186.784C211.564 175.343 210.108 163.822 208.108 152.525C206.969 146.065 205.627 139.557 204.114 133.152L194.997 135.303C181.894 138.397 168.791 141.483 155.696 144.578Z" fill="white"/>
<path d="M71.6709 273.197C89.0437 277.298 106.416 281.4 123.789 285.493C128.027 268.559 130.735 251.346 131.915 234.052C127.368 233.7 91.744 230.942 78.4785 229.918C77.7302 241.312 76.1768 252.657 73.8181 263.89C73.1674 267.008 72.4517 270.11 71.6709 273.189V273.197Z" fill="#E0F2FF"/>
<path d="M124.708 286.98L70.1418 274.1L70.4428 272.893C71.2154 269.831 71.9312 266.72 72.5737 263.642C74.908 252.529 76.4696 241.16 77.2097 229.839L77.291 228.591L78.5598 228.687C91.8253 229.711 127.457 232.469 131.996 232.821L133.232 232.917L133.151 234.132C131.963 251.506 129.222 268.879 124.993 285.781L124.692 286.972L124.708 286.98ZM73.1837 272.285L122.862 284.006C126.791 268.016 129.385 251.61 130.573 235.195C123.049 234.612 92.842 232.277 79.6416 231.254C78.8608 242.271 77.3154 253.328 75.0381 264.146C74.4688 266.856 73.8506 269.583 73.1837 272.285Z" fill="white"/>
<path d="M78.4785 198.082C91.744 197.058 127.311 194.3 131.858 193.948C130.678 176.662 128.027 159.449 123.789 142.507C106.416 146.608 89.0437 150.71 71.6709 154.803C72.4436 157.882 73.1593 160.984 73.8181 164.102C76.1768 175.335 77.7302 186.688 78.4785 198.082Z" fill="#A8DBFF"/>
<path d="M77.2991 199.409L77.2178 198.161C76.4776 186.84 74.916 175.471 72.5818 164.358C71.9392 161.296 71.2235 158.177 70.4508 155.107L70.1499 153.9L124.716 141.02L125.017 142.211C129.19 158.897 131.914 176.271 133.118 193.86L133.2 195.075L123.521 195.827C110.971 196.802 88.5231 198.537 78.5842 199.305L77.3154 199.401L77.2991 199.409ZM73.1918 155.715C73.8587 158.425 74.4768 161.152 75.0462 163.846C77.3154 174.664 78.8688 185.721 79.6496 196.746C90.1254 195.939 111.272 194.3 123.318 193.364L130.516 192.805C129.312 176.191 126.742 159.784 122.862 143.994L73.1918 155.715Z" fill="white"/>
<path d="M5.53885 68.7429C4.30258 67.2877 3.05818 65.8486 1.78125 64.4175C17.7877 50.9855 55.1034 19.6602 57.763 17.4216C68.3282 29.3584 77.9336 42.1108 86.4736 55.5747C82.5859 57.9173 52.1185 76.2664 40.7725 83.1023C40.7725 83.1023 40.7725 83.1023 40.7562 83.1023C32.8343 83.2142 24.9124 83.3182 16.9906 83.4301C13.3794 78.3771 9.56485 73.476 5.54698 68.7349L5.53885 68.7429Z" fill="#E0F2FF"/>
<path d="M16.3399 84.6853L15.9576 84.1497C12.3871 79.1527 8.55627 74.2276 4.57093 69.5344C3.35093 68.0953 2.0984 66.6481 0.837733 65.233L0 64.2896L0.967867 63.474C9.67053 56.1664 24.6928 43.5579 37.0067 33.2201C47.3197 24.5613 55.7377 17.4935 56.9496 16.4781L57.8931 15.6866L58.7145 16.6141C69.3041 28.5749 79.0072 41.4632 87.5391 54.9192L88.206 55.9745L87.1243 56.6221C83.2365 58.9647 52.7772 77.3138 41.4312 84.1497C41.4149 84.1577 41.3987 84.1737 41.3824 84.1816L41.1059 84.3416L16.348 84.6853H16.3399ZM6.50667 67.9514C10.3863 72.5326 14.1276 77.3218 17.6331 82.1908L40.3901 81.879C51.1912 75.3709 78.1044 59.1646 84.7249 55.167C76.6404 42.5426 67.5392 30.4458 57.6247 19.1565C54.9081 21.4352 47.4661 27.6794 38.6333 35.099C26.7668 45.061 12.3789 57.1418 3.5624 64.5454C4.55467 65.6727 5.5388 66.808 6.49853 67.9514H6.50667Z" fill="white"/>
<path d="M120.78 194.811C107.515 195.835 91.744 197.05 78.4785 198.082C79.178 208.683 79.178 219.325 78.4785 229.926C91.744 230.95 101.431 231.685 114.704 232.709C115.144 227.296 115.355 221.659 115.347 215.359C117.299 215.359 119.365 215.359 121.431 215.359C121.398 208.459 121.357 201.559 120.788 194.811H120.78Z" fill="#E0F2FF"/>
<path d="M115.851 234.036L114.599 233.94C108.076 233.436 102.334 232.997 96.7785 232.573C91.0445 232.133 85.1234 231.677 78.3727 231.158L77.1365 231.062L77.2178 229.847C77.9091 219.341 77.9091 208.675 77.2178 198.161L77.1365 196.946L78.3727 196.85C84.7167 196.363 91.6219 195.827 98.5597 195.291C106.14 194.708 113.745 194.116 120.674 193.58L121.919 193.484L122.024 194.708C122.602 201.503 122.642 208.539 122.675 215.351V216.59H116.591C116.575 222.419 116.355 227.728 115.941 232.805L115.843 234.036H115.851ZM79.8042 228.783C86.0425 229.263 91.5894 229.687 96.9737 230.102C102.171 230.502 107.531 230.91 113.541 231.374C113.915 226.377 114.094 221.124 114.086 215.359V214.12H120.162C120.129 208.163 120.072 202.047 119.625 196.139C113.037 196.65 105.888 197.202 98.763 197.746C92.2726 198.249 85.8066 198.745 79.8042 199.209C80.3979 209.027 80.3979 218.965 79.8042 228.783Z" fill="white"/>
<path d="M123.789 142.507C106.417 146.608 89.0439 150.71 71.6629 154.811C68.4747 142.123 64.2697 129.722 59.0969 117.722C72.3624 112.317 105.384 98.8769 108.621 97.5576C110.687 102.363 112.622 107.224 114.436 112.149C118.112 122.135 121.227 132.273 123.789 142.507Z" fill="#E0F2FF"/>
<path d="M70.7438 156.298L70.4429 155.107C67.2871 142.539 63.0741 130.122 57.9419 118.209L57.4458 117.066L58.617 116.586C71.8825 111.181 104.896 97.7415 108.141 96.4223L109.296 95.9506L109.784 97.0779C111.85 101.891 113.81 106.816 115.624 111.733C119.284 121.687 122.447 131.945 125.018 142.219L125.318 143.426L70.7519 156.306L70.7438 156.298ZM60.7479 118.385C65.5547 129.69 69.5319 141.435 72.5819 153.316L122.26 141.595C119.772 131.809 116.738 122.055 113.249 112.573C111.598 108.087 109.816 103.586 107.946 99.1727C101.382 101.843 73.6393 113.14 60.7479 118.393V118.385Z" fill="white"/>
<path d="M98.9012 326.485C92.8094 340.476 85.587 353.988 77.2828 366.893C65.1072 359.561 52.9398 352.229 40.7642 344.898C47.8076 333.84 53.932 322.263 59.0967 310.278C72.3622 315.683 85.6276 321.08 98.8931 326.485H98.9012Z" fill="#E0F2FF"/>
<path d="M77.6816 368.58L66.9049 362.087C57.9745 356.707 49.0441 351.326 40.1137 345.945L39.032 345.289L39.707 344.234C46.6854 333.281 52.818 321.688 57.9501 309.791L58.4381 308.663L100.561 325.813L100.065 326.964C93.9564 340.996 86.6526 354.652 78.3566 367.548L77.6978 368.58H77.6816ZM42.5049 344.49C51.0774 349.655 59.65 354.82 68.2225 359.985L76.8845 365.206C84.6112 353.077 91.4594 340.284 97.2422 327.148L59.772 311.893C54.8594 323.135 49.0522 334.096 42.5049 344.498V344.49Z" fill="white"/>
<path d="M161.447 401.024C141.813 389.191 122.171 377.366 102.537 365.533C110.622 352.445 117.681 338.693 123.619 324.39C144.895 333.057 166.172 341.716 187.457 350.382C181.398 364.934 174.395 379.021 166.522 392.565C164.871 395.412 163.179 398.226 161.447 401.016V401.024Z" fill="#E0F2FF"/>
<path d="M161.861 402.727L100.805 365.949L101.455 364.894C109.515 351.846 116.575 338.062 122.447 323.926L122.927 322.775L189.084 349.711L188.612 350.846C182.577 365.341 175.509 379.581 167.604 393.173C165.961 396.003 164.245 398.857 162.512 401.656L161.853 402.719L161.861 402.727ZM104.253 365.126L161.024 399.321C162.52 396.883 164.001 394.412 165.424 391.958C173.069 378.813 179.926 365.054 185.814 351.054L124.302 326.005C118.633 339.477 111.898 352.621 104.253 365.118V365.126Z" fill="white"/>
<path d="M187.465 77.6096C166.18 86.2764 144.903 94.9432 123.627 103.602C117.689 89.2986 110.63 75.5468 102.545 62.4586C122.187 50.6257 141.821 38.8008 161.463 26.9679C163.187 29.7582 164.871 32.5645 166.522 35.4028C174.403 48.9547 181.406 63.0503 187.465 77.6096Z" fill="#E0F2FF"/>
<path d="M122.935 105.217L122.455 104.066C116.583 89.9302 109.523 76.1465 101.463 63.0983L100.813 62.0429L161.87 25.2569L162.528 26.3123C164.261 29.1026 165.969 31.9569 167.604 34.7792C175.509 48.3791 182.585 62.6265 188.62 77.1299L189.092 78.2652L122.927 105.209L122.935 105.217ZM104.261 62.8744C111.906 75.3709 118.641 88.5151 124.31 101.987L185.83 76.938C179.942 62.9304 173.077 49.1706 165.432 36.0105C164.009 33.5639 162.536 31.0934 161.04 28.6629L104.261 62.8664V62.8744Z" fill="white"/>
<path d="M187.473 77.6096C190.361 76.4343 236.371 57.7015 236.664 57.5816C218.966 41.3752 198.526 27.9833 176.095 18.1571C171.215 21.0914 166.343 24.0336 161.463 26.9679C163.187 29.7582 164.879 32.5725 166.53 35.4108C174.403 48.9627 181.406 63.0503 187.473 77.6096Z" fill="#E0F2FF"/>
<path d="M186.782 79.2246L186.302 78.0733C180.308 63.6819 173.289 49.5304 165.432 36.0184C163.789 33.1961 162.097 30.3658 160.381 27.5995L159.73 26.5441L160.796 25.9045C165.676 22.9702 170.548 20.028 175.428 17.0938L175.989 16.75L176.591 17.0138C199.014 26.8399 219.51 40.176 237.501 56.6621L238.933 57.9733L237.127 58.7089C236.875 58.8128 191.369 77.3457 187.937 78.7369L186.774 79.2086L186.782 79.2246ZM163.187 27.3756C164.692 29.8222 166.18 32.3167 167.62 34.7952C175.322 48.0433 182.227 61.891 188.156 75.9945C195.102 73.1642 226.456 60.3959 234.37 57.1818C217.087 41.6311 197.526 28.9747 176.192 19.5483C171.857 22.1627 167.53 24.7692 163.195 27.3756H163.187Z" fill="white"/>
<path d="M214.557 226.88C214.443 229.95 214.281 232.997 214.077 236.059C213.996 237.402 213.899 238.745 213.801 240.088C242.186 242.287 270.58 244.478 298.965 246.676V181.332C270.58 183.53 242.186 185.721 213.801 187.92C213.899 189.255 213.988 190.598 214.077 191.933C214.273 194.995 214.435 198.042 214.557 201.112C214.883 209.707 214.883 218.293 214.557 226.888V226.88Z" fill="#E0F2FF"/>
<path d="M300.226 248.012L212.459 241.224L212.548 240C212.646 238.665 212.744 237.314 212.825 235.987C213.036 232.773 213.191 229.783 213.305 226.84C213.63 218.317 213.63 209.675 213.305 201.16C213.191 198.217 213.036 195.227 212.825 192.013C212.736 190.646 212.646 189.295 212.548 188.016L212.459 186.792L214.248 186.656C242.455 184.474 270.661 182.291 298.868 180.108L300.226 180.004V248.02V248.012ZM215.151 238.945L297.713 245.333V182.659C270.189 184.785 242.674 186.92 215.151 189.047C215.216 189.966 215.281 190.902 215.338 191.845C215.55 195.075 215.704 198.082 215.818 201.048C216.143 209.635 216.143 218.333 215.818 226.92C215.704 229.886 215.55 232.901 215.338 236.131C215.281 237.058 215.216 238.002 215.151 238.945Z" fill="white"/>
<path d="M98.9012 101.515C92.8094 87.5236 85.587 74.0037 77.2828 61.1075C65.1072 68.4391 52.9398 75.7707 40.7642 83.1023C47.8076 94.1677 53.932 105.745 59.0967 117.722C72.3622 112.317 85.6276 106.92 98.8931 101.515H98.9012Z" fill="#E0F2FF"/>
<path d="M58.4298 119.337L57.9418 118.209C52.8097 106.304 46.669 94.7194 39.6987 83.7659L39.0237 82.7105L77.6814 59.4285L78.3402 60.4599C86.6443 73.3561 93.9481 87.012 100.056 101.044L100.552 102.195L58.4298 119.345V119.337ZM42.5047 83.5101C49.0521 93.9118 54.8593 104.873 59.7718 116.115L97.2421 100.86C91.4593 87.7235 84.611 74.9312 76.8762 62.8024L42.4966 83.5101H42.5047Z" fill="white"/>
<path d="M235.793 370.067C219.681 363.503 203.577 356.946 187.465 350.39C189.45 345.625 191.337 340.812 193.11 335.959C193.411 335.152 193.703 334.344 193.996 333.536C196.941 325.357 199.568 317.074 201.877 308.695C202.113 307.832 202.349 306.96 202.577 306.089C203.447 302.851 204.277 299.605 205.049 296.343C230.263 302.291 255.468 308.24 280.681 314.196C273.711 327.036 265.439 339.101 256.045 350.23C252.166 349.319 248.294 348.408 244.415 347.488C243.723 349.479 243.008 351.47 242.284 353.445C240.909 357.186 239.486 360.912 238.006 364.614C237.274 366.437 236.534 368.26 235.777 370.067H235.793Z" fill="#E0F2FF"/>
<path d="M236.477 371.69L185.822 351.062L186.294 349.927C188.262 345.194 190.157 340.356 191.922 335.543L191.955 335.447C192.231 334.688 192.524 333.904 192.801 333.129C195.721 325.022 198.364 316.691 200.657 308.376C200.861 307.648 201.056 306.896 201.251 306.177L201.357 305.777C202.219 302.563 203.049 299.301 203.821 296.063L204.114 294.856L282.552 313.365L281.787 314.772C274.825 327.588 266.489 339.781 257.013 351.014L256.517 351.606L251.759 350.486C249.588 349.975 247.416 349.463 245.236 348.951C244.659 350.598 244.065 352.253 243.471 353.868C242.097 357.61 240.657 361.384 239.185 365.07C238.445 366.925 237.689 368.763 236.948 370.546L236.469 371.69H236.477ZM189.1 349.719L235.11 368.452C235.688 367.044 236.273 365.605 236.859 364.158C238.323 360.496 239.763 356.747 241.121 353.029C241.837 351.078 242.552 349.079 243.244 347.088L243.618 346.025L244.732 346.289C247.278 346.889 249.815 347.488 252.361 348.088L255.598 348.847C264.415 338.326 272.223 326.956 278.819 315.02L206.001 297.838C205.31 300.7 204.57 303.578 203.805 306.409L203.699 306.808C203.504 307.536 203.301 308.288 203.097 309.023C200.788 317.394 198.128 325.781 195.184 333.952C194.899 334.736 194.614 335.519 194.33 336.287L194.297 336.383C192.662 340.844 190.922 345.321 189.1 349.727V349.719Z" fill="white"/>
<path d="M40.7562 344.89C40.7562 344.89 40.7562 344.89 40.7643 344.89C52.1103 351.726 82.5778 370.083 86.4655 372.425C77.9255 385.881 68.3282 398.642 57.763 410.578C55.1034 408.348 17.7795 377.015 1.78125 363.583C3.05005 362.159 4.30258 360.712 5.53885 359.257C9.54858 354.516 13.3713 349.615 16.9825 344.57C24.9043 344.682 32.8343 344.786 40.7562 344.898V344.89Z" fill="#E0F2FF"/>
<path d="M57.8931 412.313L56.9496 411.522C55.1521 410.011 37.5191 395.212 21.3337 381.62L0 363.71L0.837733 362.767C2.09027 361.368 3.3428 359.921 4.57907 358.466C8.55627 353.764 12.3871 348.855 15.9576 343.858L16.3399 343.323H17.0068C24.9205 343.443 32.8261 343.547 40.7399 343.658H41.114L41.4312 343.85C52.7772 350.686 83.2447 369.043 87.1324 371.386L88.2141 372.033L87.5472 373.089C79.0072 386.545 69.3123 399.433 58.7227 411.394L57.9012 412.313H57.8931ZM3.5624 363.447L22.9685 379.733C37.5841 392.006 53.3872 405.27 57.6328 408.835C67.5392 397.546 76.6485 385.441 84.7331 372.825C78.1044 368.835 51.1993 352.629 40.3983 346.113C32.8099 346.009 25.2215 345.905 17.6331 345.801C14.1357 350.67 10.3944 355.451 6.5148 360.041C5.54693 361.184 4.55467 362.327 3.57053 363.447H3.5624ZM40.0892 345.937C40.0892 345.937 40.0892 345.937 40.0973 345.937H40.0892Z" fill="white"/>
<path d="M161.455 401.032C166.335 403.966 171.207 406.909 176.087 409.851C198.518 400.025 218.957 386.633 236.656 370.426C236.363 370.307 209.344 359.305 196.119 353.924C193.232 352.749 190.344 351.574 187.457 350.398C181.398 364.95 174.395 379.037 166.522 392.581C164.871 395.427 163.179 398.242 161.447 401.04L161.455 401.032Z" fill="#E0F2FF"/>
<path d="M175.997 411.242L175.436 410.898C170.556 407.956 165.676 405.022 160.804 402.079L159.739 401.44L160.389 400.384C162.114 397.602 163.813 394.772 165.44 391.958C173.289 378.454 180.308 364.31 186.302 349.919L186.782 348.767L196.607 352.765C209.832 358.146 236.851 369.155 237.144 369.267L238.949 370.003L237.518 371.314C219.519 387.8 199.023 401.136 176.607 410.962L176.005 411.226L175.997 411.242ZM163.179 400.624C167.514 403.239 171.849 405.845 176.184 408.46C197.518 399.033 217.079 386.385 234.362 370.834C228.051 368.268 206.871 359.641 195.647 355.068L188.148 352.013C182.219 366.109 175.314 379.965 167.62 393.197C166.18 395.675 164.692 398.17 163.179 400.624Z" fill="white"/>
<path d="M280.689 314.196C291.889 293.568 299.746 270.95 303.544 247.028C300.998 246.828 241.17 242.199 213.801 240.088C212.923 252.001 211.434 263.874 209.352 275.675C208.124 282.599 206.692 289.491 205.058 296.351C230.271 302.299 255.476 308.248 280.689 314.196Z" fill="#E0F2FF"/>
<path d="M281.34 315.619L261.121 310.846C242.333 306.409 223.553 301.979 204.765 297.55L203.545 297.262L203.829 296.063C205.456 289.267 206.896 282.335 208.108 275.459C210.173 263.762 211.67 251.833 212.54 239.992L212.63 238.753L274.744 243.558C290.352 244.766 302.511 245.709 303.634 245.797L304.984 245.901L304.772 247.22C301.015 270.878 293.28 293.608 281.779 314.78L281.324 315.619H281.34ZM206.57 295.431C224.952 299.765 243.333 304.106 261.706 308.448L280.039 312.773C290.937 292.481 298.355 270.75 302.096 248.156C298.347 247.868 287.676 247.036 274.565 246.029L214.972 241.416C214.077 252.929 212.613 264.522 210.596 275.883C209.441 282.399 208.091 288.971 206.57 295.431Z" fill="white"/>
<path d="M205.066 131.649C230.279 125.701 255.492 119.752 280.706 113.796C291.905 134.424 299.762 157.042 303.552 180.964C302.023 181.084 242.194 185.713 213.809 187.904C212.931 175.991 211.442 164.11 209.36 152.301C208.14 145.385 206.709 138.493 205.066 131.641V131.649Z" fill="#E0F2FF"/>
<path d="M212.646 189.247L212.556 188.008C211.686 176.167 210.19 164.23 208.124 152.525C206.912 145.657 205.472 138.733 203.846 131.937L203.561 130.738L281.364 112.373L281.82 113.212C293.312 134.384 301.047 157.114 304.805 180.772L305.016 182.091L303.666 182.195C302.113 182.315 240.055 187.12 213.923 189.135L212.662 189.231L212.646 189.247ZM206.57 132.569C208.091 139.029 209.441 145.593 210.596 152.101C212.605 163.478 214.077 175.071 214.972 186.584C239.722 184.674 292.857 180.556 302.096 179.844C298.363 157.25 290.946 135.519 280.047 115.227L206.57 132.569Z" fill="white"/>
<path d="M105.091 402.728L106.685 402.52C106.872 403.407 107.181 404.047 107.62 404.447C108.059 404.838 108.596 405.038 109.231 405.038C109.979 405.038 110.613 404.782 111.134 404.271C111.654 403.759 111.906 403.127 111.906 402.368C111.906 401.608 111.671 401.049 111.191 400.585C110.711 400.113 110.101 399.881 109.361 399.881C109.06 399.881 108.686 399.937 108.23 400.057L108.409 398.682C108.515 398.69 108.604 398.698 108.669 398.698C109.353 398.698 109.963 398.522 110.508 398.178C111.052 397.826 111.321 397.291 111.321 396.563C111.321 395.988 111.126 395.508 110.727 395.132C110.329 394.756 109.816 394.564 109.19 394.564C108.564 394.564 108.051 394.756 107.636 395.14C107.222 395.524 106.953 396.1 106.839 396.867L105.245 396.587C105.44 395.532 105.888 394.716 106.579 394.141C107.27 393.565 108.133 393.269 109.157 393.269C109.865 393.269 110.524 393.421 111.118 393.717C111.711 394.013 112.175 394.429 112.492 394.94C112.809 395.46 112.964 396.004 112.964 396.587C112.964 397.171 112.809 397.643 112.508 398.098C112.207 398.554 111.76 398.914 111.166 399.178C111.939 399.354 112.533 399.713 112.956 400.265C113.379 400.817 113.598 401.504 113.598 402.328C113.598 403.447 113.183 404.391 112.354 405.166C111.524 405.942 110.475 406.333 109.214 406.333C108.076 406.333 107.124 405.998 106.368 405.334C105.611 404.662 105.18 403.799 105.074 402.736L105.091 402.728Z" fill="black"/>
<path d="M115.192 399.793C115.192 398.282 115.347 397.067 115.664 396.147C115.981 395.228 116.453 394.516 117.071 394.012C117.697 393.509 118.478 393.261 119.43 393.261C120.129 393.261 120.739 393.397 121.268 393.677C121.797 393.956 122.228 394.348 122.569 394.868C122.911 395.388 123.179 396.019 123.374 396.771C123.57 397.514 123.667 398.522 123.667 399.793C123.667 401.296 123.513 402.503 123.196 403.423C122.878 404.342 122.415 405.054 121.788 405.557C121.162 406.061 120.373 406.309 119.422 406.309C118.169 406.309 117.185 405.869 116.469 404.982C115.615 403.918 115.184 402.183 115.184 399.785L115.192 399.793ZM116.835 399.793C116.835 401.896 117.087 403.287 117.584 403.982C118.08 404.678 118.698 405.022 119.43 405.022C120.162 405.022 120.78 404.67 121.276 403.974C121.772 403.279 122.024 401.88 122.024 399.785C122.024 397.69 121.772 396.283 121.276 395.587C120.78 394.892 120.154 394.548 119.405 394.548C118.657 394.548 118.088 394.852 117.649 395.467C117.096 396.243 116.827 397.682 116.827 399.785L116.835 399.793Z" fill="black"/>
<path d="M133.688 404.59V406.101H125.091C125.082 405.726 125.139 405.358 125.278 405.014C125.497 404.438 125.847 403.871 126.327 403.311C126.807 402.751 127.506 402.104 128.417 401.376C129.832 400.233 130.784 399.337 131.28 398.666C131.776 398.002 132.028 397.371 132.028 396.779C132.028 396.155 131.801 395.636 131.353 395.204C130.898 394.78 130.312 394.564 129.58 394.564C128.808 394.564 128.198 394.788 127.734 395.244C127.27 395.7 127.043 396.323 127.034 397.131L125.392 396.963C125.505 395.755 125.928 394.844 126.66 394.212C127.392 393.581 128.376 393.269 129.613 393.269C130.849 393.269 131.849 393.613 132.573 394.292C133.297 394.972 133.663 395.819 133.663 396.819C133.663 397.331 133.557 397.834 133.346 398.33C133.134 398.826 132.777 399.345 132.289 399.889C131.792 400.433 130.971 401.184 129.824 402.136C128.864 402.927 128.254 403.463 127.978 403.743C127.71 404.023 127.482 404.31 127.303 404.59H133.679H133.688Z" fill="black"/>
<path d="M217.477 103.666V100.604H211.833V99.1647L217.77 90.8817H219.071V99.1647H220.828V100.604H219.071V103.666H217.477ZM217.477 99.1647V93.4001L213.402 99.1647H217.477Z" fill="black"/>
<path d="M222.463 97.3577C222.463 95.8466 222.617 94.6314 222.935 93.7119C223.252 92.7925 223.723 92.0809 224.342 91.5772C224.968 91.0735 225.749 90.8257 226.7 90.8257C227.4 90.8257 228.01 90.9616 228.538 91.2414C229.067 91.5212 229.498 91.913 229.84 92.4327C230.181 92.9524 230.45 93.584 230.645 94.3356C230.84 95.0791 230.938 96.0865 230.938 97.3577C230.938 98.8608 230.783 100.068 230.466 100.988C230.149 101.907 229.685 102.619 229.059 103.122C228.433 103.626 227.644 103.874 226.692 103.874C225.44 103.874 224.456 103.434 223.74 102.547C222.886 101.483 222.455 99.7483 222.455 97.3498L222.463 97.3577ZM224.098 97.3577C224.098 99.4605 224.35 100.852 224.846 101.547C225.342 102.243 225.96 102.587 226.692 102.587C227.424 102.587 228.042 102.235 228.538 101.539C229.035 100.844 229.287 99.4445 229.287 97.3498C229.287 95.255 229.035 93.8478 228.538 93.1523C228.042 92.4567 227.416 92.1129 226.668 92.1129C225.92 92.1129 225.35 92.4167 224.911 93.0323C224.358 93.8079 224.089 95.247 224.089 97.3498L224.098 97.3577Z" fill="black"/>
<path d="M235.021 96.7341C234.362 96.4943 233.866 96.1585 233.549 95.7107C233.231 95.271 233.069 94.7433 233.069 94.1197C233.069 93.1922 233.41 92.4087 234.085 91.7771C234.769 91.1455 235.671 90.8257 236.802 90.8257C237.932 90.8257 238.852 91.1535 239.543 91.8011C240.234 92.4487 240.584 93.2402 240.584 94.1677C240.584 94.7593 240.429 95.279 240.112 95.7187C239.795 96.1585 239.315 96.4943 238.673 96.7341C239.47 96.99 240.08 97.4057 240.494 97.9734C240.909 98.541 241.121 99.2206 241.121 100.012C241.121 101.108 240.73 102.027 239.941 102.771C239.152 103.514 238.12 103.89 236.834 103.89C235.549 103.89 234.516 103.514 233.728 102.771C232.939 102.027 232.548 101.092 232.548 99.9722C232.548 99.1407 232.76 98.4451 233.191 97.8854C233.622 97.3258 234.232 96.942 235.021 96.7421V96.7341ZM234.191 99.9722C234.191 100.42 234.297 100.852 234.516 101.275C234.736 101.691 235.053 102.019 235.476 102.251C235.899 102.483 236.363 102.595 236.851 102.595C237.615 102.595 238.242 102.355 238.738 101.867C239.234 101.387 239.486 100.772 239.486 100.028C239.486 99.2846 239.234 98.645 238.721 98.1493C238.209 97.6536 237.566 97.4057 236.802 97.4057C236.037 97.4057 235.427 97.6536 234.931 98.1413C234.435 98.629 234.191 99.2366 234.191 99.9722ZM234.704 94.0717C234.704 94.6794 234.899 95.1671 235.297 95.5508C235.696 95.9346 236.208 96.1265 236.843 96.1265C237.477 96.1265 237.965 95.9346 238.355 95.5588C238.746 95.175 238.949 94.7113 238.949 94.1597C238.949 93.608 238.746 93.0963 238.339 92.7045C237.932 92.3128 237.428 92.1129 236.826 92.1129C236.224 92.1129 235.712 92.3048 235.305 92.6885C234.907 93.0723 234.704 93.528 234.704 94.0637V94.0717Z" fill="black"/>
<path d="M87.1324 304.218V305.73H78.5354C78.5273 305.354 78.5842 304.986 78.7225 304.642C78.9421 304.067 79.2918 303.499 79.7717 302.939C80.2516 302.38 80.951 301.732 81.862 301.004C83.2772 299.861 84.2288 298.966 84.7249 298.294C85.221 297.63 85.4732 296.999 85.4732 296.407C85.4732 295.784 85.2454 295.264 84.7981 294.832C84.3426 294.408 83.757 294.192 83.025 294.192C82.2524 294.192 81.6424 294.416 81.1788 294.872C80.7152 295.328 80.4874 295.951 80.4793 296.759L78.8364 296.591C78.9502 295.384 79.3732 294.472 80.1052 293.841C80.8372 293.209 81.8213 292.897 83.0576 292.897C84.2938 292.897 85.2942 293.241 86.0181 293.921C86.742 294.6 87.108 295.448 87.108 296.447C87.108 296.959 87.0022 297.463 86.7908 297.958C86.5793 298.454 86.2214 298.974 85.7334 299.517C85.2373 300.061 84.4158 300.812 83.269 301.764C82.3093 302.555 81.6993 303.091 81.4228 303.371C81.1544 303.651 80.9266 303.939 80.7477 304.218H87.1242H87.1324Z" fill="black"/>
<path d="M88.8404 299.421C88.8404 297.91 88.9949 296.695 89.3121 295.775C89.6293 294.856 90.1011 294.144 90.7192 293.64C91.3455 293.137 92.1263 292.889 93.0779 292.889C93.7773 292.889 94.3873 293.025 94.916 293.305C95.4447 293.584 95.8757 293.976 96.2173 294.496C96.5589 295.016 96.8273 295.647 97.0225 296.399C97.2177 297.142 97.3153 298.15 97.3153 299.421C97.3153 300.924 97.1608 302.131 96.8436 303.051C96.5264 303.97 96.0628 304.682 95.4365 305.185C94.8103 305.689 94.0213 305.937 93.0697 305.937C91.8172 305.937 90.8331 305.497 90.1173 304.61C89.2633 303.546 88.8323 301.811 88.8323 299.413L88.8404 299.421ZM90.4833 299.421C90.4833 301.524 90.7355 302.915 91.2316 303.61C91.7277 304.306 92.3459 304.65 93.0779 304.65C93.8099 304.65 94.428 304.298 94.9241 303.602C95.4203 302.907 95.6724 301.508 95.6724 299.413C95.6724 297.318 95.4203 295.911 94.9241 295.215C94.428 294.52 93.8017 294.176 93.0535 294.176C92.3052 294.176 91.7359 294.48 91.2967 295.095C90.7436 295.871 90.4752 297.31 90.4752 299.413L90.4833 299.421Z" fill="black"/>
<path d="M104.066 305.729V302.667H98.4214V301.228L104.359 292.945H105.66V301.228H107.417V302.667H105.66V305.729H104.066ZM104.066 301.228V295.463L99.9911 301.228H104.066Z" fill="black"/>
<path d="M171.337 266.96L172.931 266.752C173.118 267.64 173.427 268.28 173.866 268.679C174.305 269.071 174.842 269.271 175.477 269.271C176.225 269.271 176.859 269.015 177.38 268.503C177.9 267.992 178.153 267.36 178.153 266.601C178.153 265.841 177.917 265.281 177.437 264.818C176.957 264.346 176.347 264.114 175.607 264.114C175.306 264.114 174.932 264.17 174.476 264.29L174.655 262.915C174.761 262.923 174.85 262.931 174.915 262.931C175.599 262.931 176.209 262.755 176.754 262.411C177.299 262.059 177.567 261.524 177.567 260.796C177.567 260.22 177.372 259.741 176.973 259.365C176.575 258.989 176.062 258.797 175.436 258.797C174.81 258.797 174.297 258.989 173.883 259.373C173.468 259.757 173.199 260.332 173.085 261.1L171.491 260.82C171.687 259.765 172.134 258.949 172.825 258.373C173.517 257.798 174.379 257.502 175.403 257.502C176.111 257.502 176.77 257.654 177.364 257.95C177.957 258.246 178.421 258.661 178.738 259.173C179.055 259.693 179.21 260.236 179.21 260.82C179.21 261.404 179.055 261.875 178.754 262.331C178.453 262.787 178.006 263.147 177.412 263.41C178.185 263.586 178.779 263.946 179.202 264.498C179.625 265.049 179.844 265.737 179.844 266.561C179.844 267.68 179.429 268.623 178.6 269.399C177.77 270.174 176.721 270.566 175.46 270.566C174.322 270.566 173.37 270.23 172.614 269.567C171.857 268.895 171.426 268.032 171.321 266.968L171.337 266.96Z" fill="black"/>
<path d="M181.43 264.034C181.43 262.523 181.585 261.308 181.902 260.388C182.219 259.469 182.691 258.757 183.309 258.254C183.935 257.75 184.716 257.502 185.668 257.502C186.367 257.502 186.977 257.638 187.506 257.918C188.035 258.198 188.466 258.589 188.807 259.109C189.149 259.629 189.417 260.26 189.612 261.012C189.808 261.755 189.905 262.763 189.905 264.034C189.905 265.537 189.751 266.744 189.433 267.664C189.116 268.583 188.653 269.295 188.026 269.799C187.4 270.302 186.611 270.55 185.66 270.55C184.407 270.55 183.423 270.11 182.707 269.223C181.853 268.16 181.422 266.425 181.422 264.026L181.43 264.034ZM183.073 264.034C183.073 266.137 183.325 267.528 183.821 268.224C184.318 268.919 184.936 269.263 185.668 269.263C186.4 269.263 187.018 268.911 187.514 268.216C188.01 267.52 188.262 266.121 188.262 264.026C188.262 261.931 188.01 260.524 187.514 259.829C187.018 259.133 186.392 258.789 185.643 258.789C184.895 258.789 184.326 259.093 183.887 259.709C183.333 260.484 183.065 261.923 183.065 264.026L183.073 264.034Z" fill="black"/>
<path d="M191.532 266.984L193.207 266.848C193.329 267.648 193.622 268.256 194.07 268.655C194.525 269.063 195.07 269.263 195.704 269.263C196.477 269.263 197.128 268.975 197.656 268.407C198.185 267.84 198.453 267.08 198.453 266.137C198.453 265.193 198.201 264.538 197.689 264.018C197.176 263.498 196.51 263.243 195.68 263.243C195.168 263.243 194.704 263.354 194.289 263.586C193.874 263.818 193.549 264.114 193.313 264.482L191.817 264.29L193.077 257.726H199.543V259.229H194.354L193.655 262.667C194.436 262.131 195.257 261.867 196.111 261.867C197.25 261.867 198.201 262.251 198.982 263.027C199.763 263.802 200.153 264.794 200.153 266.009C200.153 267.224 199.812 268.168 199.12 269.007C198.283 270.038 197.144 270.558 195.704 270.558C194.525 270.558 193.557 270.23 192.809 269.583C192.061 268.935 191.63 268.072 191.524 266.992L191.532 266.984Z" fill="black"/>
<path d="M175.558 216.542L177.152 216.335C177.339 217.222 177.648 217.862 178.087 218.261C178.527 218.653 179.063 218.853 179.698 218.853C180.446 218.853 181.081 218.597 181.601 218.086C182.122 217.574 182.374 216.942 182.374 216.183C182.374 215.423 182.138 214.864 181.658 214.4C181.178 213.928 180.568 213.696 179.828 213.696C179.527 213.696 179.153 213.752 178.697 213.872L178.876 212.497C178.982 212.505 179.072 212.513 179.137 212.513C179.82 212.513 180.43 212.337 180.975 211.993C181.52 211.641 181.788 211.106 181.788 210.378C181.788 209.803 181.593 209.323 181.194 208.947C180.796 208.571 180.283 208.379 179.657 208.379C179.031 208.379 178.519 208.571 178.104 208.955C177.689 209.339 177.421 209.914 177.307 210.682L175.713 210.402C175.908 209.347 176.355 208.531 177.046 207.956C177.738 207.38 178.6 207.084 179.625 207.084C180.332 207.084 180.991 207.236 181.585 207.532C182.179 207.828 182.642 208.243 182.959 208.755C183.277 209.275 183.431 209.819 183.431 210.402C183.431 210.986 183.277 211.458 182.976 211.913C182.675 212.369 182.227 212.729 181.634 212.993C182.406 213.169 183 213.528 183.423 214.08C183.846 214.632 184.065 215.319 184.065 216.143C184.065 217.262 183.651 218.206 182.821 218.981C181.991 219.757 180.942 220.148 179.682 220.148C178.543 220.148 177.591 219.813 176.835 219.149C176.079 218.477 175.647 217.614 175.542 216.551L175.558 216.542Z" fill="black"/>
<path d="M185.651 213.616C185.651 212.105 185.806 210.89 186.123 209.97C186.44 209.051 186.912 208.339 187.53 207.836C188.157 207.332 188.937 207.084 189.889 207.084C190.588 207.084 191.198 207.22 191.727 207.5C192.256 207.78 192.687 208.171 193.028 208.691C193.37 209.211 193.638 209.842 193.834 210.594C194.029 211.338 194.126 212.345 194.126 213.616C194.126 215.119 193.972 216.327 193.655 217.246C193.337 218.166 192.874 218.877 192.248 219.381C191.621 219.884 190.832 220.132 189.881 220.132C188.628 220.132 187.644 219.693 186.928 218.805C186.074 217.742 185.643 216.007 185.643 213.608L185.651 213.616ZM187.294 213.616C187.294 215.719 187.547 217.11 188.043 217.806C188.539 218.501 189.157 218.845 189.889 218.845C190.621 218.845 191.239 218.493 191.735 217.798C192.231 217.102 192.483 215.703 192.483 213.608C192.483 211.513 192.231 210.106 191.735 209.411C191.239 208.715 190.613 208.371 189.865 208.371C189.116 208.371 188.547 208.675 188.108 209.291C187.555 210.066 187.286 211.505 187.286 213.608L187.294 213.616Z" fill="black"/>
<path d="M204.041 210.266L202.455 210.386C202.317 209.771 202.113 209.323 201.853 209.043C201.422 208.595 200.885 208.372 200.259 208.372C199.747 208.372 199.307 208.507 198.917 208.787C198.413 209.147 198.014 209.675 197.729 210.362C197.437 211.058 197.29 212.041 197.274 213.321C197.656 212.745 198.128 212.321 198.681 212.041C199.234 211.762 199.82 211.626 200.43 211.626C201.495 211.626 202.398 212.009 203.146 212.785C203.895 213.552 204.269 214.552 204.269 215.775C204.269 216.575 204.09 217.326 203.74 218.014C203.39 218.701 202.902 219.229 202.292 219.597C201.674 219.965 200.983 220.149 200.202 220.149C198.868 220.149 197.786 219.669 196.949 218.701C196.111 217.742 195.688 216.151 195.688 213.944C195.688 211.474 196.152 209.675 197.079 208.555C197.892 207.58 198.982 207.092 200.348 207.092C201.373 207.092 202.211 207.372 202.862 207.94C203.512 208.507 203.911 209.283 204.041 210.274V210.266ZM197.526 215.775C197.526 216.319 197.64 216.831 197.876 217.326C198.112 217.822 198.437 218.198 198.86 218.454C199.283 218.709 199.722 218.845 200.186 218.845C200.861 218.845 201.438 218.581 201.926 218.046C202.414 217.51 202.65 216.783 202.65 215.863C202.65 214.944 202.414 214.28 201.934 213.776C201.455 213.265 200.853 213.017 200.121 213.017C199.389 213.017 198.787 213.273 198.283 213.776C197.778 214.288 197.526 214.952 197.526 215.775Z" fill="black"/>
<path d="M153.631 317.514L155.225 317.306C155.412 318.194 155.721 318.834 156.16 319.233C156.599 319.625 157.136 319.825 157.77 319.825C158.519 319.825 159.153 319.569 159.674 319.057C160.194 318.546 160.446 317.914 160.446 317.155C160.446 316.395 160.21 315.835 159.731 315.372C159.251 314.9 158.641 314.668 157.901 314.668C157.6 314.668 157.225 314.724 156.77 314.844L156.949 313.469C157.055 313.477 157.144 313.485 157.209 313.485C157.892 313.485 158.502 313.309 159.047 312.965C159.592 312.613 159.861 312.078 159.861 311.35C159.861 310.774 159.665 310.295 159.267 309.919C158.868 309.543 158.356 309.351 157.73 309.351C157.103 309.351 156.591 309.543 156.176 309.927C155.761 310.311 155.493 310.886 155.379 311.654L153.785 311.374C153.98 310.319 154.428 309.503 155.119 308.927C155.81 308.352 156.672 308.056 157.697 308.056C158.405 308.056 159.064 308.208 159.657 308.504C160.251 308.8 160.715 309.215 161.032 309.727C161.349 310.247 161.504 310.79 161.504 311.374C161.504 311.958 161.349 312.429 161.048 312.885C160.747 313.341 160.3 313.701 159.706 313.964C160.479 314.14 161.073 314.5 161.495 315.052C161.918 315.603 162.138 316.291 162.138 317.115C162.138 318.234 161.723 319.177 160.894 319.953C160.064 320.728 159.015 321.12 157.754 321.12C156.615 321.12 155.664 320.784 154.907 320.121C154.151 319.449 153.72 318.586 153.614 317.522L153.631 317.514Z" fill="black"/>
<path d="M163.732 314.58C163.732 313.069 163.887 311.853 164.204 310.934C164.521 310.015 164.993 309.303 165.611 308.799C166.237 308.296 167.018 308.048 167.97 308.048C168.669 308.048 169.279 308.184 169.808 308.464C170.336 308.743 170.767 309.135 171.109 309.655C171.451 310.174 171.719 310.806 171.914 311.558C172.109 312.301 172.207 313.309 172.207 314.58C172.207 316.083 172.053 317.29 171.735 318.21C171.418 319.129 170.955 319.841 170.328 320.344C169.702 320.848 168.913 321.096 167.961 321.096C166.709 321.096 165.725 320.656 165.009 319.769C164.155 318.705 163.724 316.97 163.724 314.572L163.732 314.58ZM165.375 314.58C165.375 316.683 165.627 318.074 166.123 318.769C166.619 319.465 167.238 319.809 167.97 319.809C168.702 319.809 169.32 319.457 169.816 318.761C170.312 318.066 170.564 316.667 170.564 314.572C170.564 312.477 170.312 311.07 169.816 310.374C169.32 309.679 168.693 309.335 167.945 309.335C167.197 309.335 166.628 309.639 166.188 310.254C165.635 311.03 165.367 312.469 165.367 314.572L165.375 314.58Z" fill="black"/>
<path d="M178.95 320.888V317.826H173.305V316.387L179.242 308.104H180.544V316.387H182.301V317.826H180.544V320.888H178.95ZM178.95 316.387V310.622L174.875 316.387H178.95Z" fill="black"/>
<path d="M151.622 114.988L153.216 114.78C153.403 115.667 153.712 116.307 154.151 116.707C154.59 117.098 155.127 117.298 155.761 117.298C156.51 117.298 157.144 117.042 157.665 116.531C158.185 116.019 158.437 115.387 158.437 114.628C158.437 113.868 158.201 113.309 157.722 112.845C157.242 112.373 156.632 112.141 155.892 112.141C155.591 112.141 155.217 112.197 154.761 112.317L154.94 110.942C155.046 110.95 155.135 110.958 155.2 110.958C155.883 110.958 156.493 110.782 157.038 110.438C157.583 110.087 157.852 109.551 157.852 108.823C157.852 108.248 157.657 107.768 157.258 107.392C156.859 107.016 156.347 106.825 155.721 106.825C155.095 106.825 154.582 107.016 154.167 107.4C153.753 107.784 153.484 108.36 153.37 109.127L151.776 108.847C151.971 107.792 152.419 106.976 153.11 106.401C153.801 105.825 154.663 105.529 155.688 105.529C156.396 105.529 157.055 105.681 157.648 105.977C158.242 106.273 158.706 106.689 159.023 107.2C159.34 107.72 159.495 108.264 159.495 108.847C159.495 109.431 159.34 109.903 159.039 110.358C158.738 110.814 158.291 111.174 157.697 111.438C158.47 111.614 159.064 111.973 159.487 112.525C159.909 113.077 160.129 113.764 160.129 114.588C160.129 115.707 159.714 116.651 158.885 117.426C158.055 118.202 157.006 118.594 155.745 118.594C154.607 118.594 153.655 118.258 152.899 117.594C152.142 116.923 151.711 116.059 151.605 114.996L151.622 114.988Z" fill="black"/>
<path d="M161.715 112.053C161.715 110.542 161.87 109.327 162.187 108.407C162.504 107.488 162.976 106.776 163.594 106.272C164.22 105.769 165.001 105.521 165.952 105.521C166.652 105.521 167.262 105.657 167.791 105.937C168.319 106.216 168.75 106.608 169.092 107.128C169.434 107.648 169.702 108.279 169.897 109.031C170.092 109.774 170.19 110.782 170.19 112.053C170.19 113.556 170.035 114.763 169.718 115.683C169.401 116.602 168.937 117.314 168.311 117.818C167.685 118.321 166.896 118.569 165.944 118.569C164.692 118.569 163.708 118.129 162.992 117.242C162.138 116.179 161.707 114.444 161.707 112.045L161.715 112.053ZM163.358 112.053C163.358 114.156 163.61 115.547 164.106 116.242C164.602 116.938 165.22 117.282 165.952 117.282C166.684 117.282 167.303 116.93 167.799 116.234C168.295 115.539 168.547 114.14 168.547 112.045C168.547 109.95 168.295 108.543 167.799 107.847C167.303 107.152 166.676 106.808 165.928 106.808C165.18 106.808 164.611 107.112 164.171 107.728C163.618 108.503 163.35 109.942 163.35 112.045L163.358 112.053Z" fill="black"/>
<path d="M174.281 111.429C173.622 111.189 173.126 110.854 172.809 110.406C172.492 109.966 172.329 109.439 172.329 108.815C172.329 107.887 172.671 107.104 173.346 106.472C174.029 105.841 174.932 105.521 176.062 105.521C177.193 105.521 178.112 105.849 178.803 106.496C179.495 107.144 179.844 107.935 179.844 108.863C179.844 109.455 179.69 109.974 179.373 110.414C179.055 110.854 178.576 111.189 177.933 111.429C178.73 111.685 179.34 112.101 179.755 112.669C180.17 113.236 180.381 113.916 180.381 114.707C180.381 115.803 179.991 116.722 179.202 117.466C178.413 118.209 177.38 118.585 176.095 118.585C174.81 118.585 173.777 118.209 172.988 117.466C172.199 116.722 171.809 115.787 171.809 114.667C171.809 113.836 172.02 113.14 172.451 112.581C172.882 112.021 173.492 111.637 174.281 111.437V111.429ZM173.443 114.667C173.443 115.115 173.549 115.547 173.769 115.971C173.988 116.386 174.306 116.714 174.728 116.946C175.151 117.178 175.615 117.29 176.103 117.29C176.868 117.29 177.494 117.05 177.99 116.562C178.486 116.083 178.738 115.467 178.738 114.723C178.738 113.98 178.486 113.34 177.974 112.844C177.461 112.349 176.819 112.101 176.054 112.101C175.29 112.101 174.68 112.349 174.184 112.837C173.687 113.324 173.443 113.932 173.443 114.667ZM173.964 108.767C173.964 109.375 174.159 109.862 174.558 110.246C174.956 110.63 175.469 110.822 176.103 110.822C176.737 110.822 177.225 110.63 177.616 110.254C178.006 109.87 178.21 109.407 178.21 108.855C178.21 108.303 178.006 107.792 177.6 107.4C177.193 107.008 176.689 106.808 176.087 106.808C175.485 106.808 174.972 107 174.566 107.384C174.167 107.768 173.964 108.223 173.964 108.759V108.767Z" fill="black"/>
<path d="M106.433 30.5581L108.027 30.3503C108.214 31.2377 108.523 31.8773 108.962 32.2771C109.401 32.6689 109.938 32.8688 110.573 32.8688C111.321 32.8688 111.955 32.6129 112.476 32.1012C112.996 31.5895 113.249 30.9579 113.249 30.1984C113.249 29.4388 113.013 28.8791 112.533 28.4154C112.053 27.9437 111.443 27.7118 110.703 27.7118C110.402 27.7118 110.028 27.7678 109.572 27.8877L109.751 26.5126C109.857 26.5206 109.946 26.5285 110.011 26.5285C110.695 26.5285 111.305 26.3527 111.85 26.0089C112.395 25.6571 112.663 25.1214 112.663 24.3938C112.663 23.8182 112.468 23.3385 112.069 22.9627C111.671 22.5869 111.158 22.395 110.532 22.395C109.906 22.395 109.393 22.5869 108.979 22.9707C108.564 23.3544 108.295 23.9301 108.181 24.6976L106.587 24.4178C106.783 23.3624 107.23 22.5469 107.921 21.9713C108.613 21.3956 109.475 21.0998 110.499 21.0998C111.207 21.0998 111.866 21.2517 112.46 21.5475C113.053 21.8433 113.517 22.2591 113.834 22.7708C114.151 23.2905 114.306 23.8342 114.306 24.4178C114.306 25.0015 114.151 25.4732 113.85 25.9289C113.549 26.3846 113.102 26.7444 112.508 27.0083C113.281 27.1842 113.875 27.5439 114.298 28.0956C114.721 28.6473 114.94 29.3349 114.94 30.1584C114.94 31.2777 114.525 32.2211 113.696 32.9967C112.866 33.7722 111.817 34.164 110.556 34.164C109.418 34.164 108.466 33.8282 107.71 33.1646C106.953 32.493 106.522 31.6295 106.417 30.5661L106.433 30.5581Z" fill="black"/>
<path d="M122.545 33.9397H120.951V23.9377C120.569 24.2975 120.064 24.6572 119.438 25.017C118.812 25.3768 118.251 25.6486 117.754 25.8245V24.3054C118.649 23.8897 119.43 23.394 120.097 22.8023C120.764 22.2187 121.235 21.643 121.52 21.0914H122.553V33.9317L122.545 33.9397Z" fill="black"/>
<path d="M126.636 27.6317C126.636 26.1206 126.79 24.9053 127.108 23.9859C127.425 23.0664 127.897 22.3548 128.515 21.8511C129.141 21.3474 129.922 21.0996 130.873 21.0996C131.573 21.0996 132.183 21.2355 132.712 21.5153C133.24 21.7952 133.671 22.1869 134.013 22.7066C134.354 23.2263 134.623 23.8579 134.818 24.6095C135.013 25.353 135.111 26.3604 135.111 27.6317C135.111 29.1348 134.956 30.342 134.639 31.2615C134.322 32.1809 133.858 32.8925 133.232 33.3962C132.606 33.8999 131.817 34.1478 130.865 34.1478C129.613 34.1478 128.629 33.708 127.913 32.8206C127.059 31.7572 126.628 30.0222 126.628 27.6237L126.636 27.6317ZM128.279 27.6317C128.279 29.7344 128.531 31.1256 129.027 31.8212C129.523 32.5167 130.141 32.8605 130.873 32.8605C131.605 32.8605 132.224 32.5088 132.72 31.8132C133.216 31.1176 133.468 29.7184 133.468 27.6237C133.468 25.5289 133.216 24.1218 132.72 23.4262C132.224 22.7306 131.597 22.3868 130.849 22.3868C130.101 22.3868 129.531 22.6906 129.092 23.3063C128.539 24.0818 128.271 25.5209 128.271 27.6237L128.279 27.6317Z" fill="black"/>
<path d="M171.337 166.125L172.931 165.917C173.118 166.804 173.427 167.444 173.866 167.844C174.305 168.235 174.842 168.435 175.477 168.435C176.225 168.435 176.859 168.179 177.38 167.668C177.9 167.156 178.153 166.524 178.153 165.765C178.153 165.005 177.917 164.446 177.437 163.982C176.957 163.51 176.347 163.278 175.607 163.278C175.306 163.278 174.932 163.334 174.476 163.454L174.655 162.079C174.761 162.087 174.85 162.095 174.915 162.095C175.599 162.095 176.209 161.919 176.754 161.575C177.299 161.224 177.567 160.688 177.567 159.96C177.567 159.385 177.372 158.905 176.973 158.529C176.575 158.153 176.062 157.962 175.436 157.962C174.81 157.962 174.297 158.153 173.883 158.537C173.468 158.921 173.199 159.497 173.085 160.264L171.491 159.984C171.687 158.929 172.134 158.113 172.825 157.538C173.517 156.962 174.379 156.666 175.403 156.666C176.111 156.666 176.77 156.818 177.364 157.114C177.957 157.41 178.421 157.826 178.738 158.337C179.055 158.857 179.21 159.401 179.21 159.984C179.21 160.568 179.055 161.04 178.754 161.495C178.453 161.951 178.006 162.311 177.412 162.575C178.185 162.751 178.779 163.11 179.202 163.662C179.625 164.214 179.844 164.901 179.844 165.725C179.844 166.844 179.429 167.788 178.6 168.563C177.77 169.339 176.721 169.731 175.46 169.731C174.322 169.731 173.37 169.395 172.614 168.731C171.857 168.06 171.426 167.196 171.321 166.133L171.337 166.125Z" fill="black"/>
<path d="M181.43 163.198C181.43 161.687 181.585 160.472 181.902 159.553C182.219 158.633 182.691 157.922 183.309 157.418C183.935 156.914 184.716 156.666 185.668 156.666C186.367 156.666 186.977 156.802 187.506 157.082C188.035 157.362 188.466 157.754 188.807 158.273C189.149 158.793 189.417 159.425 189.612 160.176C189.808 160.92 189.905 161.927 189.905 163.198C189.905 164.701 189.751 165.909 189.433 166.828C189.116 167.748 188.653 168.459 188.026 168.963C187.4 169.467 186.611 169.714 185.66 169.714C184.407 169.714 183.423 169.275 182.707 168.387C181.853 167.324 181.422 165.589 181.422 163.19L181.43 163.198ZM183.073 163.198C183.073 165.301 183.325 166.692 183.821 167.388C184.318 168.083 184.936 168.427 185.668 168.427C186.4 168.427 187.018 168.075 187.514 167.38C188.01 166.684 188.262 165.285 188.262 163.19C188.262 161.096 188.01 159.688 187.514 158.993C187.018 158.297 186.392 157.954 185.643 157.954C184.895 157.954 184.326 158.257 183.887 158.873C183.333 159.649 183.065 161.088 183.065 163.19L183.073 163.198Z" fill="black"/>
<path d="M191.638 158.393V156.882H200.056V158.105C199.226 158.969 198.405 160.12 197.591 161.559C196.778 162.999 196.152 164.47 195.704 165.989C195.387 167.06 195.184 168.227 195.094 169.507H193.451C193.468 168.499 193.671 167.284 194.053 165.861C194.436 164.438 194.989 163.062 195.704 161.743C196.42 160.424 197.185 159.305 197.998 158.401H191.63L191.638 158.393Z" fill="black"/>
<path d="M97.6569 261.252V262.763H89.06C89.0518 262.387 89.1088 262.02 89.247 261.676C89.4666 261.1 89.8164 260.533 90.2962 259.973C90.7761 259.413 91.4756 258.766 92.3865 258.038C93.8017 256.895 94.7533 255.999 95.2494 255.328C95.7456 254.664 95.9977 254.032 95.9977 253.441C95.9977 252.817 95.77 252.298 95.3226 251.866C94.8672 251.442 94.2816 251.226 93.5496 251.226C92.7769 251.226 92.1669 251.45 91.7033 251.906C91.2397 252.361 91.012 252.985 91.0038 253.793L89.3609 253.625C89.4748 252.417 89.8977 251.506 90.6297 250.874C91.3617 250.243 92.3458 249.931 93.5821 249.931C94.8184 249.931 95.8188 250.275 96.5426 250.954C97.2665 251.634 97.6325 252.481 97.6325 253.481C97.6325 253.993 97.5268 254.496 97.3153 254.992C97.1038 255.488 96.746 256.007 96.258 256.551C95.7618 257.095 94.9404 257.846 93.7936 258.798C92.8338 259.589 92.2238 260.125 91.9473 260.405C91.6789 260.685 91.4512 260.972 91.2722 261.252H97.6488H97.6569Z" fill="black"/>
<path d="M99.3649 256.455C99.3649 254.944 99.5195 253.728 99.8367 252.809C100.154 251.889 100.626 251.178 101.244 250.674C101.87 250.17 102.651 249.923 103.602 249.923C104.302 249.923 104.912 250.058 105.441 250.338C105.969 250.618 106.4 251.01 106.742 251.53C107.083 252.049 107.352 252.681 107.547 253.432C107.742 254.176 107.84 255.183 107.84 256.455C107.84 257.958 107.685 259.165 107.368 260.084C107.051 261.004 106.587 261.715 105.961 262.219C105.335 262.723 104.546 262.971 103.594 262.971C102.342 262.971 101.358 262.531 100.642 261.644C99.7879 260.58 99.3568 258.845 99.3568 256.447L99.3649 256.455ZM101.008 256.455C101.008 258.557 101.26 259.949 101.756 260.644C102.252 261.34 102.87 261.683 103.602 261.683C104.334 261.683 104.953 261.332 105.449 260.636C105.945 259.941 106.197 258.541 106.197 256.447C106.197 254.352 105.945 252.945 105.449 252.249C104.953 251.554 104.326 251.21 103.578 251.21C102.83 251.21 102.26 251.514 101.821 252.129C101.268 252.905 101 254.344 101 256.447L101.008 256.455Z" fill="black"/>
<path d="M109.475 259.413L111.15 259.277C111.272 260.076 111.565 260.684 112.012 261.084C112.468 261.492 113.013 261.691 113.647 261.691C114.42 261.691 115.07 261.404 115.599 260.836C116.128 260.268 116.396 259.509 116.396 258.565C116.396 257.622 116.144 256.966 115.632 256.447C115.119 255.927 114.452 255.671 113.623 255.671C113.11 255.671 112.647 255.783 112.232 256.015C111.817 256.247 111.492 256.543 111.256 256.91L109.759 256.718L111.02 250.154H117.486V251.657H112.297L111.597 255.095C112.378 254.56 113.2 254.296 114.054 254.296C115.192 254.296 116.144 254.68 116.925 255.455C117.706 256.231 118.096 257.222 118.096 258.437C118.096 259.653 117.754 260.596 117.063 261.436C116.225 262.467 115.087 262.987 113.647 262.987C112.468 262.987 111.5 262.659 110.752 262.011C110.003 261.364 109.572 260.5 109.467 259.421L109.475 259.413Z" fill="black"/>
<path d="M97.5187 176.495V178.006H88.9218C88.9136 177.63 88.9706 177.262 89.1088 176.919C89.3284 176.343 89.6782 175.775 90.158 175.216C90.6379 174.656 91.3374 174.008 92.2483 173.281C93.6635 172.137 94.6151 171.242 95.1112 170.57C95.6074 169.907 95.8595 169.275 95.8595 168.684C95.8595 168.06 95.6318 167.54 95.1844 167.108C94.729 166.685 94.1434 166.469 93.4114 166.469C92.6387 166.469 92.0287 166.693 91.5651 167.148C91.1015 167.604 90.8738 168.228 90.8656 169.035L89.2227 168.867C89.3366 167.66 89.7595 166.749 90.4915 166.117C91.2235 165.485 92.2076 165.174 93.4439 165.174C94.6802 165.174 95.6806 165.517 96.4044 166.197C97.1283 166.877 97.4943 167.724 97.4943 168.724C97.4943 169.235 97.3886 169.739 97.1771 170.235C96.9656 170.73 96.6078 171.25 96.1198 171.794C95.6236 172.337 94.8022 173.089 93.6554 174.04C92.6956 174.832 92.0856 175.368 91.8091 175.647C91.5407 175.927 91.313 176.215 91.134 176.495H97.5106H97.5187Z" fill="black"/>
<path d="M99.2348 171.697C99.2348 170.186 99.3893 168.971 99.7065 168.051C100.024 167.132 100.495 166.42 101.114 165.917C101.74 165.413 102.521 165.165 103.472 165.165C104.172 165.165 104.782 165.301 105.31 165.581C105.839 165.861 106.27 166.253 106.612 166.772C106.953 167.292 107.222 167.924 107.417 168.675C107.612 169.419 107.71 170.426 107.71 171.697C107.71 173.2 107.555 174.408 107.238 175.327C106.921 176.247 106.457 176.958 105.831 177.462C105.205 177.966 104.416 178.213 103.464 178.213C102.212 178.213 101.227 177.774 100.512 176.886C99.6578 175.823 99.2267 174.088 99.2267 171.689L99.2348 171.697ZM100.878 171.697C100.878 173.8 101.13 175.191 101.626 175.887C102.122 176.582 102.74 176.926 103.472 176.926C104.204 176.926 104.822 176.574 105.319 175.879C105.815 175.183 106.067 173.784 106.067 171.689C106.067 169.595 105.815 168.187 105.319 167.492C104.822 166.796 104.196 166.452 103.448 166.452C102.7 166.452 102.13 166.756 101.691 167.372C101.138 168.147 100.87 169.587 100.87 171.689L100.878 171.697Z" fill="black"/>
<path d="M109.442 166.892V165.381H117.86V166.604C117.031 167.468 116.209 168.619 115.396 170.058C114.582 171.497 113.956 172.969 113.509 174.488C113.192 175.559 112.988 176.726 112.899 178.006H111.256C111.272 176.998 111.476 175.783 111.858 174.36C112.24 172.937 112.793 171.561 113.509 170.242C114.225 168.923 114.989 167.804 115.802 166.9H109.434L109.442 166.892Z" fill="black"/>
<path d="M41.3418 60.4358V61.9469H32.7449C32.7368 61.5711 32.7937 61.2033 32.932 60.8595C33.1516 60.2839 33.5013 59.7162 33.9812 59.1566C34.461 58.5969 35.1605 57.9493 36.0714 57.2217C37.4866 56.0784 38.4382 55.1829 38.9344 54.5113C39.4305 53.8477 39.6826 53.2161 39.6826 52.6245C39.6826 52.0008 39.4549 51.4811 39.0076 51.0494C38.5521 50.6257 37.9665 50.4098 37.2345 50.4098C36.4618 50.4098 35.8518 50.6337 35.3882 51.0894C34.9246 51.5451 34.6969 52.1687 34.6888 52.9763L33.0458 52.8084C33.1597 51.6011 33.5826 50.6896 34.3146 50.058C35.0466 49.4264 36.0308 49.1146 37.267 49.1146C38.5033 49.1146 39.5037 49.4584 40.2276 50.1379C40.9514 50.8175 41.3174 51.665 41.3174 52.6644C41.3174 53.1761 41.2117 53.6798 41.0002 54.1755C40.7888 54.6712 40.4309 55.1909 39.9429 55.7346C39.4468 56.2783 38.6253 57.0298 37.4785 57.9813C36.5188 58.7728 35.9088 59.3085 35.6322 59.5883C35.3638 59.8681 35.1361 60.156 34.9572 60.4358H41.3337H41.3418Z" fill="black"/>
<path d="M49.0686 61.947H47.4745V51.9449C47.0922 52.3047 46.5879 52.6645 45.9617 53.0243C45.3354 53.3841 44.7742 53.6559 44.2781 53.8318V52.3127C45.1727 51.897 45.9535 51.4013 46.6205 50.8096C47.2874 50.226 47.7591 49.6503 48.0438 49.0986H49.0767V61.939L49.0686 61.947Z" fill="black"/>
<path d="M53.1595 55.6389C53.1595 54.1278 53.314 52.9125 53.6312 51.9931C53.9484 51.0736 54.4202 50.3621 55.0383 49.8584C55.6646 49.3547 56.4454 49.1068 57.397 49.1068C58.0964 49.1068 58.7064 49.2427 59.2351 49.5226C59.7638 49.8024 60.1948 50.1942 60.5364 50.7139C60.878 51.2335 61.1464 51.8652 61.3416 52.6167C61.5368 53.3603 61.6344 54.3677 61.6344 55.6389C61.6344 57.142 61.4799 58.3493 61.1627 59.2687C60.8455 60.1882 60.3819 60.8998 59.7556 61.4035C59.1294 61.9072 58.3404 62.155 57.3888 62.155C56.1363 62.155 55.1522 61.7153 54.4364 60.8278C53.5824 59.7644 53.1514 58.0295 53.1514 55.6309L53.1595 55.6389ZM54.7943 55.6389C54.7943 57.7416 55.0464 59.1328 55.5426 59.8284C56.0387 60.524 56.6568 60.8678 57.3888 60.8678C58.1208 60.8678 58.739 60.516 59.2351 59.8204C59.7312 59.1248 59.9834 57.7257 59.9834 55.6309C59.9834 53.5362 59.7312 52.129 59.2351 51.4334C58.739 50.7378 58.1127 50.394 57.3644 50.394C56.6162 50.394 56.0468 50.6979 55.6076 51.3135C55.0546 52.089 54.7862 53.5282 54.7862 55.6309L54.7943 55.6389Z" fill="black"/>
<path d="M93.9726 217.686V219.197H85.3756C85.3675 218.822 85.4244 218.454 85.5627 218.11C85.7823 217.534 86.132 216.967 86.6119 216.407C87.0918 215.847 87.7912 215.2 88.7022 214.472C90.1174 213.329 91.069 212.433 91.5651 211.762C92.0612 211.098 92.3134 210.467 92.3134 209.875C92.3134 209.251 92.0856 208.732 91.6383 208.3C91.1828 207.876 90.5972 207.66 89.8652 207.66C89.0926 207.66 88.4826 207.884 88.019 208.34C87.5554 208.796 87.3276 209.419 87.3195 210.227L85.6766 210.059C85.7904 208.851 86.2134 207.94 86.9454 207.308C87.6774 206.677 88.6615 206.365 89.8978 206.365C91.134 206.365 92.1344 206.709 92.8583 207.388C93.5822 208.068 93.9482 208.915 93.9482 209.915C93.9482 210.427 93.8424 210.93 93.631 211.426C93.4195 211.922 93.0616 212.441 92.5736 212.985C92.0775 213.529 91.256 214.28 90.1092 215.232C89.1495 216.023 88.5395 216.559 88.263 216.839C87.9946 217.119 87.7668 217.406 87.5879 217.686H93.9644H93.9726Z" fill="black"/>
<path d="M95.6806 212.889C95.6806 211.378 95.8352 210.162 96.1524 209.243C96.4696 208.323 96.9413 207.612 97.5594 207.108C98.1857 206.604 98.9665 206.357 99.9181 206.357C100.618 206.357 101.228 206.492 101.756 206.772C102.285 207.052 102.716 207.444 103.058 207.964C103.399 208.483 103.668 209.115 103.863 209.866C104.058 210.61 104.156 211.617 104.156 212.889C104.156 214.392 104.001 215.599 103.684 216.518C103.367 217.438 102.903 218.15 102.277 218.653C101.65 219.157 100.862 219.405 99.91 219.405C98.6574 219.405 97.6733 218.965 96.9576 218.078C96.1036 217.014 95.6725 215.279 95.6725 212.881L95.6806 212.889ZM97.3236 212.889C97.3236 214.991 97.5757 216.383 98.0718 217.078C98.568 217.774 99.1861 218.118 99.9181 218.118C100.65 218.118 101.268 217.766 101.764 217.07C102.26 216.375 102.513 214.975 102.513 212.881C102.513 210.786 102.26 209.379 101.764 208.683C101.268 207.988 100.642 207.644 99.8937 207.644C99.1454 207.644 98.5761 207.948 98.1369 208.563C97.5838 209.339 97.3154 210.778 97.3154 212.881L97.3236 212.889Z" fill="black"/>
<path d="M114.07 209.539L112.484 209.659C112.346 209.043 112.142 208.595 111.882 208.316C111.451 207.868 110.914 207.644 110.288 207.644C109.776 207.644 109.336 207.78 108.946 208.06C108.442 208.42 108.043 208.947 107.759 209.635C107.466 210.33 107.319 211.314 107.303 212.593C107.685 212.017 108.157 211.594 108.71 211.314C109.263 211.034 109.849 210.898 110.459 210.898C111.524 210.898 112.427 211.282 113.175 212.057C113.924 212.825 114.298 213.824 114.298 215.048C114.298 215.847 114.119 216.599 113.769 217.286C113.419 217.974 112.931 218.501 112.321 218.869C111.703 219.237 111.012 219.421 110.231 219.421C108.897 219.421 107.815 218.941 106.978 217.974C106.14 217.014 105.717 215.423 105.717 213.217C105.717 210.746 106.181 208.947 107.108 207.828C107.921 206.852 109.011 206.365 110.377 206.365C111.402 206.365 112.24 206.645 112.891 207.212C113.541 207.78 113.94 208.555 114.07 209.547V209.539ZM107.547 215.056C107.547 215.599 107.661 216.111 107.897 216.607C108.133 217.102 108.458 217.478 108.881 217.734C109.304 217.99 109.743 218.126 110.207 218.126C110.882 218.126 111.459 217.862 111.947 217.326C112.435 216.791 112.671 216.063 112.671 215.144C112.671 214.224 112.435 213.56 111.955 213.057C111.475 212.545 110.874 212.297 110.142 212.297C109.41 212.297 108.808 212.553 108.303 213.057C107.799 213.568 107.547 214.232 107.547 215.056Z" fill="black"/>
<path d="M87.1324 132.409V133.92H78.5354C78.5273 133.544 78.5842 133.176 78.7225 132.832C78.9421 132.257 79.2918 131.689 79.7717 131.129C80.2516 130.57 80.951 129.922 81.862 129.195C83.2772 128.051 84.2288 127.156 84.7249 126.484C85.221 125.821 85.4732 125.189 85.4732 124.597C85.4732 123.974 85.2454 123.454 84.7981 123.022C84.3426 122.599 83.757 122.383 83.025 122.383C82.2524 122.383 81.6424 122.607 81.1788 123.062C80.7152 123.518 80.4874 124.142 80.4793 124.949L78.8364 124.781C78.9502 123.574 79.3732 122.663 80.1052 122.031C80.8372 121.399 81.8213 121.087 83.0576 121.087C84.2938 121.087 85.2942 121.431 86.0181 122.111C86.742 122.79 87.108 123.638 87.108 124.637C87.108 125.149 87.0022 125.653 86.7908 126.148C86.5793 126.644 86.2214 127.164 85.7334 127.708C85.2373 128.251 84.4158 129.003 83.269 129.954C82.3093 130.746 81.6993 131.281 81.4228 131.561C81.1544 131.841 80.9266 132.129 80.7477 132.409H87.1242H87.1324Z" fill="black"/>
<path d="M88.8404 127.612C88.8404 126.101 88.9949 124.885 89.3121 123.966C89.6293 123.047 90.1011 122.335 90.7192 121.831C91.3455 121.328 92.1263 121.08 93.0779 121.08C93.7773 121.08 94.3873 121.216 94.916 121.496C95.4447 121.775 95.8757 122.167 96.2173 122.687C96.5589 123.206 96.8273 123.838 97.0225 124.59C97.2177 125.333 97.3153 126.341 97.3153 127.612C97.3153 129.115 97.1608 130.322 96.8436 131.242C96.5264 132.161 96.0628 132.873 95.4365 133.376C94.8103 133.88 94.0213 134.128 93.0697 134.128C91.8172 134.128 90.8331 133.688 90.1173 132.801C89.2633 131.737 88.8323 130.002 88.8323 127.604L88.8404 127.612ZM90.4833 127.612C90.4833 129.715 90.7355 131.106 91.2316 131.801C91.7277 132.497 92.3459 132.841 93.0779 132.841C93.8099 132.841 94.428 132.489 94.9241 131.793C95.4203 131.098 95.6724 129.699 95.6724 127.604C95.6724 125.509 95.4203 124.102 94.9241 123.406C94.428 122.711 93.8017 122.367 93.0535 122.367C92.3052 122.367 91.7359 122.671 91.2967 123.286C90.7436 124.062 90.4752 125.501 90.4752 127.604L90.4833 127.612Z" fill="black"/>
<path d="M101.406 126.98C100.748 126.74 100.251 126.404 99.9342 125.957C99.617 125.517 99.4544 124.989 99.4544 124.366C99.4544 123.438 99.796 122.655 100.471 122.023C101.154 121.391 102.057 121.072 103.188 121.072C104.318 121.072 105.237 121.399 105.929 122.047C106.62 122.695 106.97 123.486 106.97 124.414C106.97 125.005 106.815 125.525 106.498 125.965C106.181 126.404 105.701 126.74 105.058 126.98C105.855 127.236 106.465 127.652 106.88 128.219C107.295 128.787 107.506 129.467 107.506 130.258C107.506 131.353 107.116 132.273 106.327 133.016C105.538 133.76 104.505 134.136 103.22 134.136C101.935 134.136 100.902 133.76 100.113 133.016C99.3242 132.273 98.9338 131.337 98.9338 130.218C98.9338 129.387 99.1453 128.691 99.5764 128.131C100.007 127.572 100.617 127.188 101.406 126.988V126.98ZM100.569 130.226C100.569 130.674 100.674 131.106 100.894 131.529C101.114 131.945 101.431 132.273 101.854 132.505C102.277 132.737 102.74 132.849 103.228 132.849C103.993 132.849 104.619 132.609 105.115 132.121C105.611 131.641 105.863 131.026 105.863 130.282C105.863 129.539 105.611 128.899 105.099 128.403C104.587 127.907 103.944 127.66 103.179 127.66C102.415 127.66 101.805 127.907 101.309 128.395C100.813 128.883 100.569 129.491 100.569 130.226ZM101.081 124.318C101.081 124.925 101.276 125.413 101.675 125.797C102.073 126.181 102.586 126.372 103.22 126.372C103.855 126.372 104.343 126.181 104.733 125.805C105.123 125.421 105.327 124.957 105.327 124.406C105.327 123.854 105.123 123.342 104.717 122.95C104.31 122.559 103.806 122.359 103.204 122.359C102.602 122.359 102.09 122.551 101.683 122.934C101.284 123.318 101.081 123.774 101.081 124.31V124.318Z" fill="black"/>
<path d="M65.5384 341.788V343.299H56.9414C56.9333 342.923 56.9902 342.556 57.1285 342.212C57.3481 341.636 57.6978 341.068 58.1777 340.509C58.6576 339.949 59.357 339.302 60.268 338.574C61.6832 337.431 62.6348 336.535 63.1309 335.864C63.627 335.2 63.8792 334.568 63.8792 333.977C63.8792 333.353 63.6514 332.833 63.2041 332.402C62.7486 331.978 62.163 331.762 61.431 331.762C60.6584 331.762 60.0484 331.986 59.5848 332.442C59.1212 332.897 58.8934 333.521 58.8853 334.328L57.2424 334.161C57.3562 332.953 57.7792 332.042 58.5112 331.41C59.2432 330.779 60.2273 330.467 61.4636 330.467C62.6998 330.467 63.7002 330.811 64.4241 331.49C65.148 332.17 65.514 333.017 65.514 334.017C65.514 334.528 65.4082 335.032 65.1968 335.528C64.9853 336.023 64.6274 336.543 64.1394 337.087C63.6433 337.63 62.8218 338.382 61.675 339.334C60.7153 340.125 60.1053 340.661 59.8288 340.941C59.5604 341.22 59.3326 341.508 59.1537 341.788H65.5302H65.5384Z" fill="black"/>
<path d="M67.2545 336.99C67.2545 335.479 67.409 334.264 67.7262 333.345C68.0434 332.425 68.5151 331.714 69.1333 331.21C69.7595 330.706 70.5403 330.458 71.4919 330.458C72.1914 330.458 72.8014 330.594 73.3301 330.874C73.8587 331.154 74.2898 331.546 74.6314 332.065C74.973 332.585 75.2414 333.217 75.4366 333.968C75.6318 334.712 75.7294 335.719 75.7294 336.99C75.7294 338.494 75.5749 339.701 75.2577 340.62C74.9405 341.54 74.4769 342.251 73.8506 342.755C73.2243 343.259 72.4354 343.507 71.4838 343.507C70.2313 343.507 69.2471 343.067 68.5314 342.179C67.6774 341.116 67.2463 339.381 67.2463 336.982L67.2545 336.99ZM68.8974 336.99C68.8974 339.093 69.1495 340.484 69.6457 341.18C70.1418 341.876 70.7599 342.219 71.4919 342.219C72.2239 342.219 72.8421 341.868 73.3382 341.172C73.8343 340.476 74.0865 339.077 74.0865 336.982C74.0865 334.888 73.8343 333.481 73.3382 332.785C72.8421 332.089 72.2158 331.746 71.4675 331.746C70.7193 331.746 70.1499 332.049 69.7107 332.665C69.1577 333.441 68.8893 334.88 68.8893 336.982L68.8974 336.99Z" fill="black"/>
<path d="M77.3642 339.917L78.9583 339.709C79.1454 340.596 79.4544 341.236 79.8936 341.636C80.3328 342.027 80.8696 342.227 81.504 342.227C82.2523 342.227 82.8867 341.971 83.4072 341.46C83.9278 340.948 84.1799 340.316 84.1799 339.557C84.1799 338.797 83.944 338.238 83.4642 337.774C82.9843 337.302 82.3743 337.07 81.6342 337.07C81.3332 337.07 80.9591 337.126 80.5036 337.246L80.6826 335.871C80.7883 335.879 80.8778 335.887 80.9428 335.887C81.626 335.887 82.236 335.711 82.781 335.367C83.3259 335.016 83.5943 334.48 83.5943 333.752C83.5943 333.177 83.3991 332.697 83.0006 332.321C82.602 331.945 82.0896 331.754 81.4634 331.754C80.8371 331.754 80.3247 331.945 79.9099 332.329C79.4951 332.713 79.2267 333.289 79.1128 334.056L77.5187 333.776C77.7139 332.721 78.1612 331.905 78.8526 331.33C79.5439 330.754 80.406 330.458 81.4308 330.458C82.1384 330.458 82.7972 330.61 83.391 330.906C83.9847 331.202 84.4483 331.618 84.7655 332.129C85.0827 332.649 85.2372 333.193 85.2372 333.776C85.2372 334.36 85.0827 334.832 84.7818 335.287C84.4808 335.743 84.0335 336.103 83.4398 336.367C84.2124 336.543 84.8062 336.903 85.2291 337.454C85.652 338.006 85.8716 338.693 85.8716 339.517C85.8716 340.636 85.4568 341.58 84.6272 342.355C83.7976 343.131 82.7484 343.523 81.4878 343.523C80.3491 343.523 79.3975 343.187 78.6411 342.523C77.8847 341.852 77.4536 340.988 77.3479 339.925L77.3642 339.917Z" fill="black"/>
<path d="M132.915 364.239L134.509 364.031C134.696 364.918 135.005 365.558 135.444 365.958C135.884 366.349 136.42 366.549 137.055 366.549C137.803 366.549 138.437 366.293 138.958 365.782C139.479 365.27 139.731 364.638 139.731 363.879C139.731 363.119 139.495 362.56 139.015 362.096C138.535 361.624 137.925 361.392 137.185 361.392C136.884 361.392 136.51 361.448 136.054 361.568L136.233 360.193C136.339 360.201 136.429 360.209 136.494 360.209C137.177 360.209 137.787 360.033 138.332 359.689C138.877 359.338 139.145 358.802 139.145 358.074C139.145 357.499 138.95 357.019 138.551 356.643C138.153 356.267 137.64 356.075 137.014 356.075C136.388 356.075 135.875 356.267 135.461 356.651C135.046 357.035 134.777 357.611 134.664 358.378L133.069 358.098C133.265 357.043 133.712 356.227 134.403 355.652C135.095 355.076 135.957 354.78 136.982 354.78C137.689 354.78 138.348 354.932 138.942 355.228C139.535 355.524 139.999 355.94 140.316 356.451C140.633 356.971 140.788 357.515 140.788 358.098C140.788 358.682 140.633 359.154 140.333 359.609C140.032 360.065 139.584 360.425 138.991 360.689C139.763 360.865 140.357 361.224 140.78 361.776C141.203 362.328 141.422 363.015 141.422 363.839C141.422 364.958 141.008 365.902 140.178 366.677C139.348 367.453 138.299 367.844 137.039 367.844C135.9 367.844 134.948 367.509 134.192 366.845C133.435 366.173 133.004 365.31 132.899 364.247L132.915 364.239Z" fill="black"/>
<path d="M143.017 361.304C143.017 359.793 143.171 358.578 143.488 357.658C143.805 356.739 144.277 356.027 144.895 355.523C145.522 355.02 146.302 354.772 147.254 354.772C147.953 354.772 148.563 354.908 149.092 355.188C149.621 355.467 150.052 355.859 150.393 356.379C150.735 356.899 151.003 357.53 151.199 358.282C151.394 359.025 151.491 360.033 151.491 361.304C151.491 362.807 151.337 364.014 151.02 364.934C150.703 365.853 150.239 366.565 149.613 367.068C148.986 367.572 148.197 367.82 147.246 367.82C145.993 367.82 145.009 367.38 144.293 366.493C143.439 365.429 143.008 363.694 143.008 361.296L143.017 361.304ZM144.651 361.304C144.651 363.407 144.903 364.798 145.4 365.493C145.896 366.189 146.514 366.533 147.246 366.533C147.978 366.533 148.596 366.181 149.092 365.485C149.588 364.79 149.84 363.391 149.84 361.296C149.84 359.201 149.588 357.794 149.092 357.098C148.596 356.403 147.97 356.059 147.221 356.059C146.473 356.059 145.904 356.363 145.465 356.978C144.912 357.754 144.643 359.193 144.643 361.296L144.651 361.304Z" fill="black"/>
<path d="M153.126 364.238L154.72 364.03C154.907 364.918 155.217 365.558 155.656 365.957C156.095 366.349 156.632 366.549 157.266 366.549C158.014 366.549 158.649 366.293 159.169 365.781C159.69 365.27 159.942 364.638 159.942 363.879C159.942 363.119 159.706 362.559 159.226 362.096C158.746 361.624 158.136 361.392 157.396 361.392C157.095 361.392 156.721 361.448 156.266 361.568L156.445 360.193C156.55 360.201 156.64 360.209 156.705 360.209C157.388 360.209 157.998 360.033 158.543 359.689C159.088 359.337 159.356 358.802 159.356 358.074C159.356 357.498 159.161 357.019 158.763 356.643C158.364 356.267 157.852 356.075 157.225 356.075C156.599 356.075 156.087 356.267 155.672 356.651C155.257 357.035 154.989 357.61 154.875 358.378L153.281 358.098C153.476 357.043 153.923 356.227 154.615 355.651C155.306 355.076 156.168 354.78 157.193 354.78C157.901 354.78 158.559 354.932 159.153 355.228C159.747 355.524 160.21 355.939 160.528 356.451C160.845 356.971 160.999 357.514 160.999 358.098C160.999 358.682 160.845 359.153 160.544 359.609C160.243 360.065 159.796 360.425 159.202 360.688C159.975 360.864 160.568 361.224 160.991 361.776C161.414 362.327 161.634 363.015 161.634 363.839C161.634 364.958 161.219 365.901 160.389 366.677C159.56 367.452 158.511 367.844 157.25 367.844C156.111 367.844 155.16 367.508 154.403 366.845C153.647 366.173 153.216 365.31 153.11 364.246L153.126 364.238Z" fill="black"/>
<path d="M132.313 69.6468L133.907 69.4389C134.094 70.3264 134.403 70.966 134.843 71.3657C135.282 71.7575 135.819 71.9574 136.453 71.9574C137.201 71.9574 137.836 71.7015 138.356 71.1898C138.877 70.6781 139.129 70.0465 139.129 69.287C139.129 68.5274 138.893 67.9678 138.413 67.504C137.933 67.0323 137.323 66.8005 136.583 66.8005C136.282 66.8005 135.908 66.8564 135.453 66.9764L135.632 65.6012C135.737 65.6092 135.827 65.6172 135.892 65.6172C136.575 65.6172 137.185 65.4413 137.73 65.0975C138.275 64.7457 138.543 64.21 138.543 63.4824C138.543 62.9068 138.348 62.4271 137.95 62.0513C137.551 61.6755 137.039 61.4836 136.412 61.4836C135.786 61.4836 135.274 61.6755 134.859 62.0593C134.444 62.4431 134.176 63.0187 134.062 63.7863L132.468 63.5064C132.663 62.4511 133.11 61.6356 133.802 61.0599C134.493 60.4842 135.355 60.1884 136.38 60.1884C137.087 60.1884 137.746 60.3403 138.34 60.6361C138.934 60.932 139.397 61.3477 139.714 61.8594C140.032 62.3791 140.186 62.9228 140.186 63.5064C140.186 64.0901 140.032 64.5618 139.731 65.0175C139.43 65.4733 138.982 65.833 138.389 66.0969C139.161 66.2728 139.755 66.6326 140.178 67.1842C140.601 67.7359 140.821 68.4235 140.821 69.247C140.821 70.3663 140.406 71.3098 139.576 72.0853C138.747 72.8608 137.697 73.2526 136.437 73.2526C135.298 73.2526 134.346 72.9168 133.59 72.2532C132.834 71.5816 132.403 70.7181 132.297 69.6548L132.313 69.6468Z" fill="black"/>
<path d="M142.407 66.7121C142.407 65.201 142.561 63.9857 142.878 63.0663C143.196 62.1468 143.667 61.4352 144.285 60.9315C144.912 60.4278 145.692 60.18 146.644 60.18C147.344 60.18 147.954 60.3159 148.482 60.5957C149.011 60.8756 149.442 61.2673 149.784 61.787C150.125 62.3067 150.393 62.9383 150.589 63.6899C150.784 64.4335 150.881 65.4408 150.881 66.7121C150.881 68.2152 150.727 69.4225 150.41 70.3419C150.093 71.2614 149.629 71.9729 149.003 72.4766C148.376 72.9803 147.587 73.2282 146.636 73.2282C145.383 73.2282 144.399 72.7885 143.684 71.901C142.83 70.8376 142.398 69.1027 142.398 66.7041L142.407 66.7121ZM144.05 66.7121C144.05 68.8148 144.302 70.206 144.798 70.9016C145.294 71.5972 145.912 71.941 146.644 71.941C147.376 71.941 147.994 71.5892 148.49 70.8936C148.986 70.198 149.239 68.7988 149.239 66.7041C149.239 64.6093 148.986 63.2022 148.49 62.5066C147.994 61.811 147.368 61.4672 146.62 61.4672C145.871 61.4672 145.302 61.771 144.863 62.3867C144.31 63.1622 144.041 64.6014 144.041 66.7041L144.05 66.7121Z" fill="black"/>
<path d="M152.752 70.0621L154.289 69.9262C154.42 70.6377 154.672 71.1494 155.038 71.4692C155.404 71.7891 155.875 71.949 156.445 71.949C156.933 71.949 157.364 71.837 157.738 71.6212C158.104 71.3973 158.413 71.1015 158.649 70.7337C158.885 70.3659 159.08 69.8622 159.243 69.2386C159.405 68.607 159.478 67.9673 159.478 67.3197C159.478 67.2478 159.478 67.1438 159.47 67.0079C159.153 67.5116 158.714 67.9114 158.161 68.2232C157.608 68.535 157.006 68.6869 156.363 68.6869C155.29 68.6869 154.379 68.3031 153.631 67.5356C152.882 66.7681 152.516 65.7527 152.516 64.4974C152.516 63.2422 152.907 62.1548 153.679 61.3633C154.46 60.5718 155.428 60.18 156.599 60.18C157.445 60.18 158.218 60.4039 158.917 60.8516C159.617 61.2993 160.154 61.9389 160.511 62.7625C160.869 63.586 161.056 64.7932 161.056 66.3603C161.056 67.9274 160.877 69.2945 160.511 70.262C160.154 71.2294 159.617 71.9649 158.901 72.4766C158.185 72.9803 157.356 73.2362 156.396 73.2362C155.379 73.2362 154.55 72.9564 153.899 72.4047C153.256 71.853 152.866 71.0695 152.736 70.0621H152.752ZM159.291 64.4175C159.291 63.514 159.047 62.8024 158.559 62.2747C158.071 61.7471 157.486 61.4832 156.794 61.4832C156.103 61.4832 155.469 61.771 154.94 62.3387C154.411 62.9064 154.151 63.6499 154.151 64.5534C154.151 65.3689 154.403 66.0325 154.899 66.5362C155.396 67.0479 156.014 67.2957 156.746 67.2957C157.478 67.2957 158.096 67.0399 158.568 66.5362C159.047 66.0245 159.283 65.3209 159.283 64.4175H159.291Z" fill="black"/>
<path d="M187.839 52.8479V49.7858H182.195V48.3466L188.132 40.0636H189.433V48.3466H191.19V49.7858H189.433V52.8479H187.839ZM187.839 48.3466V42.5821L183.765 48.3466H187.839Z" fill="black"/>
<path d="M192.825 46.5481C192.825 45.0371 192.98 43.8218 193.297 42.9023C193.614 41.9829 194.086 41.2713 194.704 40.7676C195.33 40.2639 196.111 40.0161 197.063 40.0161C197.762 40.0161 198.372 40.152 198.901 40.4318C199.429 40.7116 199.86 41.1034 200.202 41.6231C200.544 42.1428 200.812 42.7744 201.007 43.526C201.202 44.2695 201.3 45.2769 201.3 46.5481C201.3 48.0512 201.146 49.2585 200.828 50.178C200.511 51.0974 200.048 51.809 199.421 52.3127C198.795 52.8164 198.006 53.0643 197.054 53.0643C195.802 53.0643 194.818 52.6245 194.102 51.737C193.248 50.6737 192.817 48.9387 192.817 46.5402L192.825 46.5481ZM194.468 46.5481C194.468 48.6509 194.72 50.0421 195.216 50.7376C195.712 51.4332 196.331 51.777 197.063 51.777C197.795 51.777 198.413 51.4252 198.909 50.7296C199.405 50.0341 199.657 48.6349 199.657 46.5402C199.657 44.4454 199.405 43.0382 198.909 42.3427C198.413 41.6471 197.786 41.3033 197.038 41.3033C196.29 41.3033 195.721 41.6071 195.281 42.2227C194.728 42.9983 194.46 44.4374 194.46 46.5402L194.468 46.5481Z" fill="black"/>
<path d="M203.171 49.8981L204.708 49.7622C204.838 50.4738 205.09 50.9855 205.456 51.3053C205.822 51.6251 206.294 51.785 206.863 51.785C207.351 51.785 207.782 51.6731 208.156 51.4572C208.522 51.2333 208.831 50.9375 209.067 50.5697C209.303 50.202 209.498 49.6983 209.661 49.0746C209.824 48.443 209.897 47.8034 209.897 47.1558C209.897 47.0838 209.897 46.9799 209.889 46.844C209.572 47.3477 209.132 47.7474 208.579 48.0592C208.026 48.3711 207.424 48.523 206.782 48.523C205.708 48.523 204.797 48.1392 204.049 47.3717C203.301 46.6041 202.935 45.5887 202.935 44.3335C202.935 43.0782 203.325 41.9909 204.098 41.1993C204.879 40.4078 205.847 40.0161 207.018 40.0161C207.864 40.0161 208.636 40.2399 209.336 40.6877C210.035 41.1354 210.572 41.775 210.93 42.5985C211.288 43.422 211.475 44.6293 211.475 46.1964C211.475 47.7634 211.296 49.1306 210.93 50.098C210.572 51.0654 210.035 51.801 209.319 52.3127C208.604 52.8164 207.774 53.0722 206.814 53.0722C205.798 53.0722 204.968 52.7924 204.317 52.2407C203.675 51.6891 203.285 50.9055 203.154 49.8981H203.171ZM209.71 44.2535C209.71 43.3501 209.466 42.6385 208.978 42.1108C208.49 41.5831 207.904 41.3193 207.213 41.3193C206.522 41.3193 205.887 41.6071 205.359 42.1748C204.83 42.7424 204.57 43.486 204.57 44.3894C204.57 45.2049 204.822 45.8686 205.318 46.3723C205.814 46.8839 206.432 47.1318 207.164 47.1318C207.896 47.1318 208.514 46.8759 208.986 46.3723C209.466 45.8606 209.702 45.157 209.702 44.2535H209.71Z" fill="black"/>
<path d="M248.847 221.699V218.637H243.203V217.198L249.14 208.915H250.442V217.198H252.198V218.637H250.442V221.699H248.847ZM248.847 217.198V211.434L244.773 217.198H248.847Z" fill="black"/>
<path d="M253.833 215.391C253.833 213.88 253.988 212.665 254.305 211.745C254.622 210.826 255.094 210.114 255.712 209.611C256.338 209.107 257.119 208.859 258.071 208.859C258.77 208.859 259.38 208.995 259.909 209.275C260.437 209.555 260.869 209.946 261.21 210.466C261.552 210.986 261.82 211.617 262.015 212.369C262.211 213.113 262.308 214.12 262.308 215.391C262.308 216.894 262.154 218.102 261.836 219.021C261.519 219.94 261.056 220.652 260.429 221.156C259.803 221.659 259.014 221.907 258.063 221.907C256.81 221.907 255.826 221.468 255.11 220.58C254.256 219.517 253.825 217.782 253.825 215.383L253.833 215.391ZM255.476 215.391C255.476 217.494 255.728 218.885 256.224 219.581C256.721 220.276 257.339 220.62 258.071 220.62C258.803 220.62 259.421 220.268 259.917 219.573C260.413 218.877 260.665 217.478 260.665 215.383C260.665 213.288 260.413 211.881 259.917 211.186C259.421 210.49 258.795 210.146 258.046 210.146C257.298 210.146 256.729 210.45 256.289 211.066C255.736 211.841 255.468 213.28 255.468 215.383L255.476 215.391Z" fill="black"/>
<path d="M272.231 212.041L270.645 212.161C270.506 211.546 270.303 211.098 270.043 210.818C269.612 210.37 269.075 210.146 268.449 210.146C267.936 210.146 267.497 210.282 267.107 210.562C266.602 210.922 266.204 211.45 265.919 212.137C265.626 212.833 265.48 213.816 265.464 215.096C265.846 214.52 266.318 214.096 266.871 213.816C267.424 213.536 268.01 213.401 268.62 213.401C269.685 213.401 270.588 213.784 271.336 214.56C272.084 215.327 272.458 216.327 272.458 217.55C272.458 218.35 272.28 219.101 271.93 219.789C271.58 220.476 271.092 221.004 270.482 221.372C269.864 221.74 269.173 221.923 268.392 221.923C267.058 221.923 265.976 221.444 265.138 220.476C264.301 219.517 263.878 217.926 263.878 215.719C263.878 213.249 264.341 211.45 265.269 210.33C266.082 209.355 267.172 208.867 268.538 208.867C269.563 208.867 270.401 209.147 271.051 209.715C271.702 210.282 272.101 211.058 272.231 212.049V212.041ZM265.708 217.558C265.708 218.102 265.822 218.613 266.058 219.109C266.293 219.605 266.619 219.981 267.042 220.236C267.465 220.492 267.904 220.628 268.367 220.628C269.042 220.628 269.62 220.364 270.108 219.829C270.596 219.293 270.832 218.565 270.832 217.646C270.832 216.727 270.596 216.063 270.116 215.559C269.636 215.048 269.034 214.8 268.302 214.8C267.57 214.8 266.968 215.056 266.464 215.559C265.96 216.071 265.708 216.735 265.708 217.558Z" fill="black"/>
<path d="M65.5384 95.6312V97.1423H56.9414C56.9333 96.7665 56.9902 96.3988 57.1285 96.055C57.3481 95.4793 57.6978 94.9117 58.1777 94.352C58.6576 93.7923 59.357 93.1447 60.268 92.4171C61.6832 91.2738 62.6348 90.3784 63.1309 89.7068C63.627 89.0432 63.8792 88.4115 63.8792 87.8199C63.8792 87.1963 63.6514 86.6766 63.2041 86.2448C62.7486 85.8211 62.163 85.6052 61.431 85.6052C60.6584 85.6052 60.0484 85.8291 59.5848 86.2848C59.1212 86.7405 58.8934 87.3642 58.8853 88.1717L57.2424 88.0038C57.3562 86.7965 57.7792 85.8851 58.5112 85.2534C59.2432 84.6218 60.2273 84.31 61.4636 84.31C62.6998 84.31 63.7002 84.6538 64.4241 85.3334C65.148 86.013 65.514 86.8605 65.514 87.8599C65.514 88.3716 65.4082 88.8753 65.1968 89.371C64.9853 89.8667 64.6274 90.3864 64.1394 90.93C63.6433 91.4737 62.8218 92.2253 61.675 93.1767C60.7153 93.9682 60.1053 94.5039 59.8288 94.7837C59.5604 95.0636 59.3326 95.3514 59.1537 95.6312H65.5302H65.5384Z" fill="black"/>
<path d="M67.2545 90.8337C67.2545 89.3226 67.409 88.1073 67.7262 87.1878C68.0434 86.2684 68.5151 85.5568 69.1333 85.0531C69.7595 84.5494 70.5403 84.3016 71.4919 84.3016C72.1914 84.3016 72.8014 84.4375 73.3301 84.7173C73.8587 84.9972 74.2898 85.3889 74.6314 85.9086C74.973 86.4283 75.2414 87.0599 75.4366 87.8115C75.6318 88.555 75.7294 89.5624 75.7294 90.8337C75.7294 92.3368 75.5749 93.544 75.2577 94.4635C74.9405 95.3829 74.4769 96.0945 73.8506 96.5982C73.2243 97.1019 72.4354 97.3498 71.4838 97.3498C70.2313 97.3498 69.2471 96.91 68.5314 96.0226C67.6774 94.9592 67.2463 93.2242 67.2463 90.8257L67.2545 90.8337ZM68.8974 90.8337C68.8974 92.9364 69.1495 94.3276 69.6457 95.0232C70.1418 95.7187 70.7599 96.0625 71.4919 96.0625C72.2239 96.0625 72.8421 95.7107 73.3382 95.0152C73.8343 94.3196 74.0865 92.9204 74.0865 90.8257C74.0865 88.7309 73.8343 87.3238 73.3382 86.6282C72.8421 85.9326 72.2158 85.5888 71.4675 85.5888C70.7193 85.5888 70.1499 85.8926 69.7107 86.5083C69.1577 87.2838 68.8893 88.7229 68.8893 90.8257L68.8974 90.8337Z" fill="black"/>
<path d="M77.6001 94.1837L79.1373 94.0477C79.2675 94.7593 79.5196 95.271 79.8856 95.5908C80.2516 95.9106 80.7233 96.0705 81.2927 96.0705C81.7807 96.0705 82.2117 95.9586 82.5859 95.7427C82.9519 95.5189 83.2609 95.223 83.4968 94.8553C83.7327 94.4875 83.9279 93.9838 84.0905 93.3602C84.2532 92.7285 84.3264 92.0889 84.3264 91.4413C84.3264 91.3693 84.3264 91.2654 84.3183 91.1295C84.0011 91.6332 83.5619 92.0329 83.0088 92.3448C82.4557 92.6566 81.8539 92.8085 81.2113 92.8085C80.1377 92.8085 79.2268 92.4247 78.4785 91.6572C77.7303 90.8896 77.3643 89.8742 77.3643 88.619C77.3643 87.3637 77.7547 86.2764 78.5273 85.4849C79.3081 84.6933 80.276 84.3016 81.4472 84.3016C82.2931 84.3016 83.0657 84.5254 83.7652 84.9732C84.4647 85.4209 85.0015 86.0605 85.3593 86.884C85.7172 87.7075 85.9043 88.9148 85.9043 90.4819C85.9043 92.0489 85.7253 93.4161 85.3593 94.3835C85.0015 95.351 84.4647 96.0865 83.7489 96.5982C83.0332 97.1019 82.2036 97.3578 81.2439 97.3578C80.2272 97.3578 79.3976 97.0779 78.7469 96.5263C78.1044 95.9746 77.714 95.1911 77.5839 94.1837H77.6001ZM84.1393 88.539C84.1393 87.6356 83.8953 86.924 83.4073 86.3963C82.9193 85.8686 82.3337 85.6048 81.6424 85.6048C80.9511 85.6048 80.3167 85.8926 79.788 86.4603C79.2593 87.0279 78.9991 87.7715 78.9991 88.675C78.9991 89.4905 79.2512 90.1541 79.7473 90.6578C80.2435 91.1695 80.8616 91.4173 81.5936 91.4173C82.3256 91.4173 82.9437 91.1615 83.4155 90.6578C83.8953 90.1461 84.1312 89.4425 84.1312 88.539H84.1393Z" fill="black"/>
<path d="M216.2 336.175V333.113H210.556V331.673L216.493 323.39H217.794V331.673H219.551V333.113H217.794V336.175H216.2ZM216.2 331.673V325.909L212.126 331.673H216.2Z" fill="black"/>
<path d="M221.186 329.875C221.186 328.364 221.341 327.148 221.658 326.229C221.975 325.309 222.447 324.598 223.065 324.094C223.691 323.59 224.472 323.343 225.423 323.343C226.123 323.343 226.733 323.479 227.262 323.758C227.79 324.038 228.221 324.43 228.563 324.95C228.905 325.469 229.173 326.101 229.368 326.852C229.563 327.596 229.661 328.603 229.661 329.875C229.661 331.378 229.506 332.585 229.189 333.505C228.872 334.424 228.408 335.136 227.782 335.639C227.156 336.143 226.367 336.391 225.415 336.391C224.163 336.391 223.179 335.951 222.463 335.064C221.609 334 221.178 332.265 221.178 329.867L221.186 329.875ZM222.829 329.875C222.829 331.977 223.081 333.369 223.577 334.064C224.073 334.76 224.691 335.104 225.423 335.104C226.155 335.104 226.774 334.752 227.27 334.056C227.766 333.361 228.018 331.961 228.018 329.867C228.018 327.772 227.766 326.365 227.27 325.669C226.774 324.974 226.147 324.63 225.399 324.63C224.651 324.63 224.081 324.934 223.642 325.549C223.089 326.325 222.821 327.764 222.821 329.867L222.829 329.875Z" fill="black"/>
<path d="M236.412 336.175V333.113H230.767V331.674L236.704 323.391H238.006V331.674H239.763V333.113H238.006V336.175H236.412ZM236.412 331.674V325.909L232.337 331.674H236.412Z" fill="black"/>
<path d="M40.3982 376.974V378.486H31.8013C31.7932 378.11 31.8501 377.742 31.9884 377.398C32.208 376.823 32.5577 376.255 33.0376 375.695C33.5174 375.136 34.2169 374.488 35.1278 373.76C36.543 372.617 37.4946 371.722 37.9908 371.05C38.4869 370.386 38.739 369.755 38.739 369.163C38.739 368.54 38.5113 368.02 38.064 367.588C37.6085 367.164 37.0229 366.948 36.2909 366.948C35.5182 366.948 34.9082 367.172 34.4446 367.628C33.981 368.084 33.7533 368.707 33.7452 369.515L32.1022 369.347C32.2161 368.14 32.639 367.228 33.371 366.597C34.103 365.965 35.0872 365.653 36.3234 365.653C37.5597 365.653 38.5601 365.997 39.284 366.677C40.0078 367.356 40.3738 368.204 40.3738 369.203C40.3738 369.715 40.2681 370.219 40.0566 370.714C39.8452 371.21 39.4873 371.73 38.9993 372.273C38.5032 372.817 37.6817 373.569 36.5349 374.52C35.5752 375.311 34.9652 375.847 34.6886 376.127C34.4202 376.407 34.1925 376.695 34.0136 376.974H40.3901H40.3982Z" fill="black"/>
<path d="M42.1143 372.185C42.1143 370.674 42.2689 369.459 42.5861 368.54C42.9033 367.62 43.375 366.909 43.9931 366.405C44.6194 365.901 45.4002 365.653 46.3518 365.653C47.0513 365.653 47.6613 365.789 48.1899 366.069C48.7186 366.349 49.1497 366.741 49.4913 367.26C49.8329 367.78 50.1013 368.412 50.2965 369.163C50.4917 369.907 50.5893 370.914 50.5893 372.185C50.5893 373.688 50.4347 374.896 50.1175 375.815C49.8003 376.735 49.3367 377.446 48.7105 377.95C48.0842 378.454 47.2953 378.701 46.3437 378.701C45.0911 378.701 44.107 378.262 43.3913 377.374C42.5373 376.311 42.1062 374.576 42.1062 372.177L42.1143 372.185ZM43.7573 372.185C43.7573 374.288 44.0094 375.679 44.5055 376.375C45.0017 377.07 45.6198 377.414 46.3518 377.414C47.0838 377.414 47.7019 377.062 48.1981 376.367C48.6942 375.671 48.9463 374.272 48.9463 372.177C48.9463 370.083 48.6942 368.675 48.1981 367.98C47.7019 367.284 47.0757 366.941 46.3274 366.941C45.5791 366.941 45.0098 367.244 44.5706 367.86C44.0175 368.636 43.7491 370.075 43.7491 372.177L43.7573 372.185Z" fill="black"/>
<path d="M60.6097 376.975V378.486H52.0127C52.0046 378.11 52.0615 377.742 52.1998 377.398C52.4194 376.823 52.7691 376.255 53.249 375.695C53.7289 375.136 54.4283 374.488 55.3393 373.76C56.7545 372.617 57.7061 371.722 58.2022 371.05C58.6983 370.386 58.9505 369.755 58.9505 369.163C58.9505 368.54 58.7227 368.02 58.2754 367.588C57.8199 367.164 57.2343 366.949 56.5023 366.949C55.7297 366.949 55.1197 367.172 54.6561 367.628C54.1925 368.084 53.9647 368.707 53.9566 369.515L52.3137 369.347C52.4275 368.14 52.8505 367.228 53.5825 366.597C54.3145 365.965 55.2986 365.653 56.5349 365.653C57.7711 365.653 58.7715 365.997 59.4954 366.677C60.2193 367.356 60.5853 368.204 60.5853 369.203C60.5853 369.715 60.4795 370.219 60.2681 370.714C60.0566 371.21 59.6987 371.73 59.2107 372.273C58.7146 372.817 57.8931 373.569 56.7463 374.52C55.7866 375.312 55.1766 375.847 54.9001 376.127C54.6317 376.407 54.4039 376.695 54.225 376.975H60.6015H60.6097Z" fill="black"/>
<path d="M186.766 386.329V383.267H181.121V381.828L187.059 373.545H188.36V381.828H190.117V383.267H188.36V386.329H186.766ZM186.766 381.828V376.063L182.691 381.828H186.766Z" fill="black"/>
<path d="M191.751 380.021C191.751 378.51 191.906 377.294 192.223 376.375C192.54 375.455 193.012 374.744 193.63 374.24C194.256 373.736 195.037 373.489 195.989 373.489C196.688 373.489 197.298 373.625 197.827 373.904C198.356 374.184 198.787 374.576 199.128 375.096C199.47 375.615 199.738 376.247 199.934 376.999C200.129 377.742 200.226 378.749 200.226 380.021C200.226 381.524 200.072 382.731 199.755 383.651C199.437 384.57 198.974 385.282 198.348 385.785C197.721 386.289 196.932 386.537 195.981 386.537C194.728 386.537 193.744 386.097 193.028 385.21C192.174 384.146 191.743 382.411 191.743 380.013L191.751 380.021ZM193.394 380.021C193.394 382.123 193.646 383.515 194.143 384.21C194.639 384.906 195.257 385.25 195.989 385.25C196.721 385.25 197.339 384.898 197.835 384.202C198.331 383.507 198.583 382.107 198.583 380.013C198.583 377.918 198.331 376.511 197.835 375.815C197.339 375.12 196.713 374.776 195.964 374.776C195.216 374.776 194.647 375.08 194.208 375.695C193.655 376.471 193.386 377.91 193.386 380.013L193.394 380.021Z" fill="black"/>
<path d="M201.869 382.955L203.463 382.747C203.651 383.635 203.96 384.274 204.399 384.674C204.838 385.066 205.375 385.266 206.009 385.266C206.757 385.266 207.392 385.01 207.912 384.498C208.433 383.987 208.685 383.355 208.685 382.595C208.685 381.836 208.449 381.276 207.969 380.812C207.489 380.341 206.879 380.109 206.139 380.109C205.838 380.109 205.464 380.165 205.009 380.285L205.188 378.91C205.293 378.918 205.383 378.926 205.448 378.926C206.131 378.926 206.741 378.75 207.286 378.406C207.831 378.054 208.099 377.518 208.099 376.791C208.099 376.215 207.904 375.735 207.506 375.36C207.107 374.984 206.595 374.792 205.969 374.792C205.342 374.792 204.83 374.984 204.415 375.368C204 375.751 203.732 376.327 203.618 377.095L202.024 376.815C202.219 375.759 202.666 374.944 203.358 374.368C204.049 373.793 204.911 373.497 205.936 373.497C206.644 373.497 207.302 373.649 207.896 373.945C208.49 374.24 208.953 374.656 209.271 375.168C209.588 375.687 209.742 376.231 209.742 376.815C209.742 377.398 209.588 377.87 209.287 378.326C208.986 378.782 208.539 379.141 207.945 379.405C208.718 379.581 209.311 379.941 209.734 380.493C210.157 381.044 210.377 381.732 210.377 382.555C210.377 383.675 209.962 384.618 209.132 385.394C208.303 386.169 207.254 386.561 205.993 386.561C204.854 386.561 203.903 386.225 203.146 385.562C202.39 384.89 201.959 384.026 201.853 382.963L201.869 382.955Z" fill="black"/>
<path d="M244.423 280.424V277.362H238.778V275.923L244.716 267.64H246.017V275.923H247.774V277.362H246.017V280.424H244.423ZM244.423 275.923V270.158L240.348 275.923H244.423Z" fill="black"/>
<path d="M249.409 274.116C249.409 272.605 249.563 271.39 249.88 270.47C250.198 269.551 250.669 268.839 251.288 268.335C251.914 267.832 252.695 267.584 253.646 267.584C254.346 267.584 254.956 267.72 255.484 268C256.013 268.28 256.444 268.671 256.786 269.191C257.127 269.711 257.396 270.342 257.591 271.094C257.786 271.837 257.884 272.845 257.884 274.116C257.884 275.619 257.729 276.826 257.412 277.746C257.095 278.665 256.631 279.377 256.005 279.881C255.379 280.384 254.59 280.632 253.638 280.632C252.386 280.632 251.401 280.192 250.686 279.305C249.832 278.242 249.401 276.507 249.401 274.108L249.409 274.116ZM251.052 274.116C251.052 276.219 251.304 277.61 251.8 278.306C252.296 279.001 252.914 279.345 253.646 279.345C254.378 279.345 254.996 278.993 255.492 278.298C255.989 277.602 256.241 276.203 256.241 274.108C256.241 272.013 255.989 270.606 255.492 269.911C254.996 269.215 254.37 268.871 253.622 268.871C252.874 268.871 252.304 269.175 251.865 269.791C251.312 270.566 251.044 272.005 251.044 274.108L251.052 274.116Z" fill="black"/>
<path d="M259.518 277.074L261.194 276.938C261.316 277.738 261.609 278.346 262.056 278.745C262.512 279.153 263.056 279.353 263.691 279.353C264.464 279.353 265.114 279.065 265.643 278.497C266.172 277.93 266.44 277.17 266.44 276.227C266.44 275.283 266.188 274.628 265.675 274.108C265.163 273.588 264.496 273.333 263.666 273.333C263.154 273.333 262.691 273.444 262.276 273.676C261.861 273.908 261.536 274.204 261.3 274.572L259.803 274.38L261.064 267.816H267.53V269.319H262.341L261.641 272.757C262.422 272.221 263.244 271.957 264.098 271.957C265.236 271.957 266.188 272.341 266.969 273.117C267.749 273.892 268.14 274.884 268.14 276.099C268.14 277.314 267.798 278.258 267.107 279.097C266.269 280.128 265.13 280.648 263.691 280.648C262.512 280.648 261.544 280.32 260.795 279.673C260.047 279.025 259.616 278.162 259.51 277.082L259.518 277.074Z" fill="black"/>
<path d="M246.708 158.561V155.499H241.064V154.059L247.001 145.776H248.303V154.059H250.059V155.499H248.303V158.561H246.708ZM246.708 154.059V148.295L242.634 154.059H246.708Z" fill="black"/>
<path d="M251.694 152.261C251.694 150.75 251.849 149.535 252.166 148.615C252.483 147.696 252.955 146.984 253.573 146.48C254.199 145.977 254.98 145.729 255.932 145.729C256.631 145.729 257.241 145.865 257.77 146.145C258.298 146.424 258.729 146.816 259.071 147.336C259.413 147.856 259.681 148.487 259.876 149.239C260.071 149.982 260.169 150.99 260.169 152.261C260.169 153.764 260.014 154.971 259.697 155.891C259.38 156.81 258.916 157.522 258.29 158.025C257.664 158.529 256.875 158.777 255.923 158.777C254.671 158.777 253.687 158.337 252.971 157.45C252.117 156.386 251.686 154.651 251.686 152.253L251.694 152.261ZM253.329 152.261C253.329 154.364 253.581 155.755 254.077 156.45C254.573 157.146 255.191 157.49 255.923 157.49C256.655 157.49 257.273 157.138 257.77 156.442C258.266 155.747 258.518 154.348 258.518 152.253C258.518 150.158 258.266 148.751 257.77 148.055C257.273 147.36 256.647 147.016 255.899 147.016C255.151 147.016 254.581 147.32 254.142 147.935C253.589 148.711 253.321 150.15 253.321 152.253L253.329 152.261Z" fill="black"/>
<path d="M261.901 147.448V145.937H270.319V147.16C269.49 148.023 268.668 149.175 267.855 150.614C267.042 152.053 266.415 153.524 265.968 155.043C265.651 156.115 265.448 157.282 265.358 158.561H263.715C263.731 157.554 263.935 156.338 264.317 154.915C264.699 153.492 265.252 152.117 265.968 150.798C266.684 149.479 267.448 148.359 268.262 147.456H261.893L261.901 147.448Z" fill="black"/>
</g>
<defs>
<clipPath id="clip0_63_313">
<rect width="305" height="428" fill="white"/>
</clipPath>
</defs>
</svg>
