<svg 
xmlns:svg="http://www.w3.org/2000/svg"
xmlns="http://www.w3.org/2000/svg"
class="map__svg" viewBox="0 0 10240 7680"><g class="seats"></g><g class="polygons"><path  id="s_59" title="302" class="block" d="M5538.32,7067.69C5349.85,6930.76,5161.38,6793.83,4972.92,6656.9C5107.37,6493.66,5230.13,6320.77,5340.17,6139.54C5633.07,6319.03,5925.97,6498.52,6218.88,6678.01C6160.14,6774.59,6098.46,6869.25,6033.95,6961.84L6033.95,6961.84C5873.51,7009.33,5707.96,7044.96,5538.32,7067.69Z"></path><path  id="s_70" title="408" class="block" d="M7327.81,1472.06C7087.54,1571.58,6847.28,1671.1,6607.03,1770.61C6636.6,1842.83,6664.67,1915.8,6691.2,1989.49C6695.61,2001.74,6700.02,2013.99,6704.43,2026.23C6748.34,2150.38,6787.55,2276.06,6822.0,2403.14C6825.5,2416.31,6828.99,2429.49,6832.49,2442.66C6845.52,2491.88,6857.84,2541.23,6869.46,2590.71C7245.53,2500.43,7621.6,2410.14,7997.67,2319.85C7893.71,2125.06,7770.4,1941.96,7630.3,1773.08C7572.41,1786.96,7514.53,1800.84,7456.66,1814.71C7446.3,1784.49,7435.71,1754.34,7424.88,1724.28C7404.43,1667.49,7383.15,1611.0,7361.08,1554.86L7361.08,1554.86C7350.19,1527.18,7339.11,1499.58,7327.81,1472.06Z"></path><path  id="s_50" title="204" class="block is-available is-filtered middle" d="M5430.98,5606.97C5382.65,5586.95,4890.23,5382.98,4692.35,5301.02C4769.48,5119.02,4832.2,4930.89,4879.78,4738.35C5138.91,4800.56,5398.04,4862.77,5657.18,4924.99C5619.02,5080.21,5572.53,5233.91,5517.74,5385.42L5517.74,5385.42C5490.7,5460.17,5461.76,5534.05,5430.98,5606.97Z"></path><path  id="s_72" title="305" class="block is-available is-filtered middle" d="M6869.26,5089.61C6616.38,5028.9,6363.5,4968.19,6110.64,4907.49C6151.06,4734.91,6181.67,4560.02,6202.29,4383.67C6210.41,4314.15,6216.97,4244.49,6221.96,4174.75C6481.21,4195.15,6740.47,4215.56,6999.74,4235.96C6986.62,4416.66,6964.48,4596.86,6933.35,4775.88L6933.35,4775.88C6915.09,4880.91,6893.72,4985.53,6869.26,5089.61Z"></path><path  id="s_71" title="306" class="block is-available is-filtered middle" d="M6999.74,4235.96C6740.47,4215.56,6481.21,4195.15,6221.96,4174.75C6237.93,3951.99,6237.93,3728.38,6221.96,3505.63C6481.22,3485.22,6740.49,3464.82,6999.77,3444.41C7009.34,3576.1,7014.12,3708.04,7014.12,3839.99L7014.12,3839.99C7014.12,3972.07,7009.33,4104.15,6999.74,4235.96Z"></path><path  id="s_56" title="304" class="block is-available is-filtered minimum" d="M6110.64,4907.49C6094.5,4976.43,6076.8,5045.01,6057.53,5113.17C5962.71,5138.57,5867.9,5163.98,5773.08,5189.39C5756.8,5240.31,5739.58,5291.01,5721.41,5341.46C5700.34,5399.96,5678.08,5457.9,5654.65,5515.26C5972.03,5646.72,6289.41,5778.19,6606.8,5909.65C6636.4,5837.37,6664.5,5764.33,6691.06,5690.58C6762.21,5493.0,6821.61,5292.34,6869.26,5089.61L6869.26,5089.61C6616.38,5028.9,6363.5,4968.19,6110.64,4907.49Z"></path><path  id="s_55" title="308" class="block is-available is-filtered middle" d="M6869.34,2590.74C6616.43,2651.46,6363.53,2712.18,6110.64,2772.89C6094.5,2703.94,6076.8,2635.36,6057.54,2567.2C5962.73,2541.8,5867.94,2516.4,5773.14,2491.0C5756.84,2440.01,5739.6,2389.25,5721.4,2338.73C5700.36,2280.29,5678.12,2222.4,5654.72,2165.09C5972.12,2033.62,6289.52,1902.15,6606.94,1770.67C6636.49,1842.84,6664.54,1915.76,6691.06,1989.4L6691.06,1989.4C6762.25,2187.1,6821.69,2387.89,6869.34,2590.74Z"></path><path  id="s_58" title="310" class="block" d="M5538.36,612.66C5349.91,749.58,5161.46,886.495,4973.02,1023.41C5107.46,1186.66,5230.22,1359.55,5340.25,1540.79C5633.18,1361.28,5926.12,1181.77,6219.05,1002.26C6160.36,905.74,6098.73,811.148,6034.27,718.613L6034.27,718.613C5873.75,671.07,5708.1,635.408,5538.36,612.66Z"></path><path  id="s_57" title="307" class="block is-available is-filtered middle" d="M6999.77,3444.41C6740.49,3464.82,6481.22,3485.22,6221.96,3505.63C6216.98,3435.88,6210.41,3366.22,6202.29,3296.7C6181.68,3120.34,6151.07,2945.46,6110.64,2772.89C6363.53,2712.18,6616.43,2651.46,6869.34,2590.74C6893.77,2694.7,6915.11,2799.2,6933.35,2904.1L6933.35,2904.1C6964.51,3083.25,6986.65,3263.58,6999.77,3444.41Z"></path><path  id="s_52" title="205" class="block is-available is-filtered middle" d="M4879.78,4738.35C5138.92,4800.56,5398.06,4862.78,5657.2,4924.99C5720.39,4668.01,5760.79,4406.84,5778.39,4144.51C5710.6,4139.18,5179.19,4097.36,4981.3,4081.78C4970.14,4254.61,4946.96,4426.84,4911.77,4597.24L4911.77,4597.24C4902.01,4644.52,4891.34,4691.57,4879.78,4738.35Z"></path><path  id="s_51" title="207" class="block is-available is-filtered middle" d="M4981.32,3598.59C5179.21,3583.02,5709.7,3541.2,5777.49,3535.86C5759.89,3273.53,5720.39,3012.36,5657.2,2755.37C5398.06,2817.58,5138.93,2879.8,4879.8,2942.01C4891.35,2988.77,4902.02,3035.79,4911.77,3083.05L4911.77,3083.05C4946.96,3253.47,4970.15,3425.74,4981.32,3598.59Z"></path><path  id="s_73" title="210" class="block" d="M3893.48,1636.11C3875.09,1614.01,3856.43,1592.15,3837.49,1570.52C4076.1,1366.72,4632.71,891.335,4672.4,857.431C4830.04,1038.55,4973.25,1232.09,5100.58,1436.29C5042.59,1471.82,4588.13,1750.31,4418.89,1854.03C4418.83,1854.07,4418.77,1854.1,4418.7,1854.14C4300.53,1855.8,4182.36,1857.46,4064.19,1859.12L4064.19,1859.12C4010.32,1782.46,3953.37,1708.07,3893.48,1636.11Z"></path><path  id="s_53" title="206" class="block is-available is-filtered middle" d="M5612.33,3549.03C5414.42,3564.61,5179.21,3583.02,4981.32,3598.59C4991.72,3759.49,4991.72,3920.89,4981.3,4081.78C5179.19,4097.36,5323.7,4108.44,5521.61,4124.01C5528.22,4041.83,5531.34,3956.39,5531.23,3860.78C5560.31,3860.77,5591.14,3860.76,5621.96,3860.75L5621.96,3860.75C5621.44,3756.07,5620.92,3651.39,5612.33,3549.03Z"></path><path  id="s_49" title="208" class="block is-available is-filtered middle" d="M5657.23,2755.38C5398.07,2817.6,5138.93,2879.81,4879.78,2942.03C4832.2,2749.47,4769.48,2561.32,4692.34,2379.31C4890.22,2297.35,5382.68,2093.37,5431.03,2073.34C5461.79,2146.22,5490.71,2220.05,5517.74,2294.76L5517.74,2294.76C5572.55,2446.33,5619.05,2600.09,5657.23,2755.38Z"></path><path  id="s_48" title="203" class="block" d="M5285.98,5546.94C5195.16,5759.26,5087.39,5964.32,4963.54,6160.07C4781.98,6048.81,4600.43,5937.56,4418.88,5826.3C4523.91,5658.47,4615.31,5482.82,4692.34,5301.04L4692.34,5301.04C4890.22,5383.01,5088.1,5464.97,5285.98,5546.94Z"></path><path  id="s_61" title="303" class="block" d="M6218.88,6678.01C5925.97,6498.52,5633.07,6319.03,5340.17,6139.54C5460.75,5940.92,5566.04,5732.27,5654.65,5515.26C5972.03,5646.72,6289.41,5778.19,6606.8,5909.65C6516.4,6130.44,6411.99,6344.18,6294.52,6549.73L6294.52,6549.73C6269.88,6592.86,6244.66,6635.62,6218.88,6678.01Z"></path><path  id="s_60" title="309" class="block" d="M6606.94,1770.67C6289.52,1902.15,5972.12,2033.62,5654.72,2165.09C5566.11,1948.07,5460.83,1739.41,5340.25,1540.79C5633.18,1361.28,5926.12,1181.77,6219.05,1002.26C6244.78,1044.56,6269.94,1087.22,6294.52,1130.25L6294.52,1130.25C6412.04,1335.9,6516.5,1549.76,6606.94,1770.67Z"></path><path  id="s_67" title="409" class="block" d="M6607.06,1770.62C6650.1,1752.79,7336.45,1468.49,7340.78,1466.7C7076.84,1220.76,6771.93,1017.61,6437.37,868.47C6364.63,913.051,6291.89,957.627,6219.15,1002.2C6244.9,1044.54,6270.09,1087.26,6294.71,1130.33L6294.71,1130.33C6412.2,1335.94,6516.65,1549.76,6607.06,1770.62Z"></path><path  id="s_66" title="406" class="block is-available is-filtered middle" d="M7011.13,4035.64C7009.39,4082.2,7006.97,4128.39,7004.0,4174.87C7002.75,4195.24,7001.38,4215.61,6999.89,4235.97C7423.3,4269.29,7846.73,4302.62,8270.15,4335.94C8270.15,4005.44,8270.15,3674.93,8270.15,3344.43C7846.73,3377.76,7423.31,3411.08,6999.9,3444.4C7001.39,3464.69,7002.75,3484.99,7004.0,3505.29C7006.97,3551.77,7009.39,3597.96,7011.13,3644.52L7011.13,3644.52C7015.99,3774.89,7015.99,3905.28,7011.13,4035.64Z"></path><path  id="s_47" title="209" class="block" d="M5285.98,2133.44C5195.15,1921.1,5087.37,1716.03,4963.52,1520.26C4781.96,1631.52,4600.41,1742.78,4418.86,1854.03C4523.91,2021.87,4615.31,2197.54,4692.35,2379.33L4692.35,2379.33C4890.23,2297.37,5088.1,2215.4,5285.98,2133.44Z"></path><path  id="s_69" title="404" class="block" d="M7327.82,6208.29C7087.52,6108.75,6847.24,6009.23,6606.96,5909.7C6636.56,5837.43,6664.65,5764.41,6691.2,5690.67C6695.64,5678.43,6700.08,5666.2,6704.42,5653.93C6748.34,5529.79,6787.54,5404.11,6822.0,5277.03C6825.57,5263.87,6829.02,5250.68,6832.49,5237.5C6845.5,5188.35,6857.81,5139.06,6869.42,5089.65C7245.44,5179.93,7621.48,5270.21,7997.51,5360.49C7893.53,5555.28,7770.2,5738.37,7630.08,5907.24C7572.26,5893.38,7514.46,5879.52,7456.66,5865.67C7446.3,5895.89,7435.71,5926.03,7424.88,5956.09C7404.43,6012.88,7383.16,6069.37,7361.08,6125.51L7361.08,6125.51C7350.2,6153.18,7339.12,6180.78,7327.82,6208.29Z"></path><path  id="s_46" title="202" class="block" d="M4418.71,5826.22C4418.76,5826.25,4418.8,5826.28,4418.86,5826.31C4588.11,5930.03,5042.59,6208.54,5100.57,6244.07C4973.25,6448.27,4830.04,6641.82,4672.4,6822.94C4632.7,6789.04,4076.05,6313.61,3837.43,6109.81C3856.39,6088.16,3875.07,6066.27,3893.48,6044.15C3953.34,5972.22,4010.27,5897.86,4064.11,5821.25L4064.11,5821.25C4182.31,5822.9,4300.51,5824.56,4418.71,5826.22Z"></path><path  id="s_68" title="403" class="block" d="M6219.06,6678.11C6291.81,6722.69,6364.57,6767.28,6437.34,6811.88C6771.9,6662.74,7076.8,6459.6,7340.75,6213.67C7336.43,6211.88,6933.37,6044.92,6736.17,5963.24C6693.1,5945.4,6650.04,5927.56,6606.99,5909.73C6516.58,6130.52,6412.17,6344.27,6294.71,6549.82L6294.71,6549.82C6270.06,6592.95,6244.84,6635.71,6219.06,6678.11Z"></path><path  id="s_65" title="405" class="block is-available is-filtered maximum" d="M7997.52,5360.47C8164.62,5047.47,8281.78,4704.27,8338.44,4341.32C8300.48,4338.33,7408.1,4268.1,6999.89,4235.97C6986.77,4416.7,6964.64,4596.92,6933.5,4775.97C6915.24,4880.98,6893.88,4985.58,6869.42,5089.64L6869.42,5089.64C7245.45,5179.91,7621.48,5270.19,7997.52,5360.47Z"></path><path  id="s_64" title="407" class="block is-available is-filtered maximum" d="M6869.46,2590.7C7245.52,2500.41,7621.59,2410.13,7997.66,2319.84C8164.74,2632.86,8281.87,2976.09,8338.49,3339.05C8315.71,3340.85,7423.31,3411.08,6999.9,3444.4C6986.79,3263.61,6964.65,3083.31,6933.5,2904.19L6933.5,2904.19C6915.25,2799.24,6893.9,2694.7,6869.46,2590.7Z"></path></g><g class="labels"><text data-component="svg__label" data-label-id="s_59" class="label" transform="" font-size="271"><tspan dy="1em" x="5567" y="6484">302</tspan></text><text data-component="svg__label" data-label-id="s_70" class="label" transform="" font-size="271"><tspan dy="1em" x="7167" y="1895">408</tspan></text><text data-component="svg__label" data-label-id="s_50" class="label" transform="" font-size="271"><tspan dy="1em" x="5174" y="4961">204</tspan></text><text data-component="svg__label" data-label-id="s_72" class="label" transform="" font-size="271"><tspan dy="1em" x="6555" y="4424">305</tspan></text><text data-component="svg__label" data-label-id="s_71" class="label" transform="" font-size="271"><tspan dy="1em" x="6618" y="3659">306</tspan></text><text data-component="svg__label" data-label-id="s_56" class="label" transform="" font-size="271"><tspan dy="1em" x="6291" y="5191">304</tspan></text><text data-component="svg__label" data-label-id="s_55" class="label" transform="" font-size="271"><tspan dy="1em" x="6261" y="2118">308</tspan></text><text data-component="svg__label" data-label-id="s_58" class="label" transform="" font-size="271"><tspan dy="1em" x="5587" y="837">310</tspan></text><text data-component="svg__label" data-label-id="s_57" class="label" transform="" font-size="271"><tspan dy="1em" x="6555" y="2894">307</tspan></text><text data-component="svg__label" data-label-id="s_52" class="label" transform="" font-size="271"><tspan dy="1em" x="5331" y="4309">205</tspan></text><text data-component="svg__label" data-label-id="s_51" class="label" transform="" font-size="271"><tspan dy="1em" x="5329" y="3023">207</tspan></text><text data-component="svg__label" data-label-id="s_73" class="label" transform="" font-size="271"><tspan dy="1em" x="4491" y="1262">210</tspan></text><text data-component="svg__label" data-label-id="s_53" class="label" transform="" font-size="271"><tspan dy="1em" x="5276" y="3648">206</tspan></text><text data-component="svg__label" data-label-id="s_49" class="label" transform="" font-size="271"><tspan dy="1em" x="5174" y="2354">208</tspan></text><text data-component="svg__label" data-label-id="s_48" class="label" transform="" font-size="271"><tspan dy="1em" x="4852" y="5531">203</tspan></text><text data-component="svg__label" data-label-id="s_61" class="label" transform="" font-size="271"><tspan dy="1em" x="5982" y="5900">303</tspan></text><text data-component="svg__label" data-label-id="s_60" class="label" transform="" font-size="271"><tspan dy="1em" x="5973" y="1430">309</tspan></text><text data-component="svg__label" data-label-id="s_67" class="label" transform="" font-size="271"><tspan dy="1em" x="6725" y="1124">409</tspan></text><text data-component="svg__label" data-label-id="s_66" class="label" transform="" font-size="271"><tspan dy="1em" x="7635" y="3686">406</tspan></text><text data-component="svg__label" data-label-id="s_47" class="label" transform="" font-size="271"><tspan dy="1em" x="4852" y="1796">209</tspan></text><text data-component="svg__label" data-label-id="s_69" class="label" transform="" font-size="271"><tspan dy="1em" x="7148" y="5423">404</tspan></text><text data-component="svg__label" data-label-id="s_46" class="label" transform="" font-size="271"><tspan dy="1em" x="4477" y="6065">202</tspan></text><text data-component="svg__label" data-label-id="s_68" class="label" transform="" font-size="271"><tspan dy="1em" x="6709" y="6184">403</tspan></text><text data-component="svg__label" data-label-id="s_65" class="label" transform="" font-size="271"><tspan dy="1em" x="7569" y="4577">405</tspan></text><text data-component="svg__label" data-label-id="s_64" class="label" transform="" font-size="271"><tspan dy="1em" x="7603" y="2728">407</tspan></text></g></svg>